<svg xmlns="http://www.w3.org/2000/svg" xmlns:xlink="http://www.w3.org/1999/xlink" width="135.341" height="134.694" viewBox="0 0 135.341 134.694">
  <defs>
    <linearGradient id="linear-gradient" x1="1.059" y1="1.131" x2="0.324" y2="0.336" gradientUnits="objectBoundingBox">
      <stop offset="0" stop-color="#dae3fe"/>
      <stop offset="1" stop-color="#e9effd"/>
    </linearGradient>
    <linearGradient id="linear-gradient-2" x1="0.682" y1="0.238" x2="-0.923" y2="2.556" gradientUnits="objectBoundingBox">
      <stop offset="0" stop-color="#ff928e"/>
      <stop offset="1" stop-color="#fe7062"/>
    </linearGradient>
    <linearGradient id="linear-gradient-3" y1="0.5" x2="1" y2="0.5" gradientUnits="objectBoundingBox">
      <stop offset="0" stop-color="#febbba"/>
      <stop offset="1" stop-color="#ff928e"/>
    </linearGradient>
    <linearGradient id="linear-gradient-28" x1="0.591" y1="0.053" x2="0.961" y2="-1.671" gradientUnits="objectBoundingBox">
      <stop offset="0" stop-color="#e1473d"/>
      <stop offset="1" stop-color="#e9605a"/>
    </linearGradient>
    <linearGradient id="linear-gradient-29" x1="0.845" y1="20.963" x2="0.636" y2="8.413" xlink:href="#linear-gradient-28"/>
    <linearGradient id="linear-gradient-30" x1="0.467" y1="0.748" x2="0.808" y2="-2.145" xlink:href="#linear-gradient-28"/>
    <linearGradient id="linear-gradient-31" x1="0.537" y1="25.042" x2="0.513" y2="8.979" xlink:href="#linear-gradient-28"/>
    <linearGradient id="linear-gradient-32" x1="4.878" y1="-1.136" x2="2.497" y2="-0.246" xlink:href="#linear-gradient-28"/>
    <linearGradient id="linear-gradient-37" x1="0.388" y1="0.608" x2="4.486" y2="-3.328" xlink:href="#linear-gradient-28"/>
    <linearGradient id="linear-gradient-38" x1="0.442" y1="-4.046" x2="0.605" y2="8.855" xlink:href="#linear-gradient-28"/>
    <linearGradient id="linear-gradient-39" x1="1.032" y1="-1.15" x2="0.938" y2="-0.79" xlink:href="#linear-gradient-2"/>
    <linearGradient id="linear-gradient-40" x1="0.96" y1="0.583" x2="1.967" y2="0.583" xlink:href="#linear-gradient-3"/>
    <linearGradient id="linear-gradient-41" x1="3.515" y1="0.628" x2="4.517" y2="0.628" gradientUnits="objectBoundingBox">
      <stop offset="0" stop-color="#09005d"/>
      <stop offset="1" stop-color="#1a0f91"/>
    </linearGradient>
    <linearGradient id="linear-gradient-42" x1="8.606" y1="-0.634" x2="8.091" y2="2.577" xlink:href="#linear-gradient-3"/>
    <linearGradient id="linear-gradient-43" x1="4.859" y1="0.607" x2="5.859" y2="0.607" xlink:href="#linear-gradient-41"/>
    <linearGradient id="linear-gradient-44" x1="17.006" y1="-0.101" x2="16.493" y2="2.674" xlink:href="#linear-gradient-3"/>
    <linearGradient id="linear-gradient-45" x1="3.585" y1="-0.294" x2="1.062" y2="1.255" xlink:href="#linear-gradient-41"/>
    <linearGradient id="linear-gradient-46" x1="1.215" y1="0.724" x2="-0.244" y2="0.293" gradientUnits="objectBoundingBox">
      <stop offset="0" stop-color="#4f52ff"/>
      <stop offset="1" stop-color="#4042e2"/>
    </linearGradient>
    <linearGradient id="linear-gradient-47" x1="4.855" y1="-0.128" x2="4.038" y2="3.075" xlink:href="#linear-gradient-3"/>
    <linearGradient id="linear-gradient-48" x1="-14.953" y1="-2.657" x2="-16.034" y2="-1.376" xlink:href="#linear-gradient-3"/>
    <linearGradient id="linear-gradient-49" x1="-11.089" y1="-1.347" x2="-10.174" y2="-1.347" xlink:href="#linear-gradient-41"/>
    <linearGradient id="linear-gradient-50" x1="-46.079" y1="-7.67" x2="-43.779" y2="-10.309" xlink:href="#linear-gradient-3"/>
    <linearGradient id="linear-gradient-51" x1="6.972" y1="-0.66" x2="6.036" y2="1.021" xlink:href="#linear-gradient-41"/>
    <linearGradient id="linear-gradient-52" x1="2.169" y1="1.305" x2="0.301" y2="0.359" xlink:href="#linear-gradient-46"/>
    <linearGradient id="linear-gradient-53" x1="4.995" y1="-1.472" x2="1.781" y2="3.445" xlink:href="#linear-gradient-3"/>
    <linearGradient id="linear-gradient-54" x1="6.132" y1="-0.998" x2="2.911" y2="5.17" xlink:href="#linear-gradient-3"/>
    <linearGradient id="linear-gradient-55" x1="3.735" y1="-5.512" x2="2.017" y2="-2.31" xlink:href="#linear-gradient-41"/>
    <linearGradient id="linear-gradient-56" x1="2.672" y1="-0.257" x2="1.881" y2="0.025" xlink:href="#linear-gradient-2"/>
    <linearGradient id="linear-gradient-57" x1="-141.057" y1="12.135" x2="-140.838" y2="11.224" xlink:href="#linear-gradient-3"/>
    <linearGradient id="linear-gradient-58" x1="-84.225" y1="9.345" x2="-83.006" y2="10.505" xlink:href="#linear-gradient-3"/>
    <linearGradient id="linear-gradient-59" x1="0.384" y1="0.139" x2="6.737" y2="6.096" xlink:href="#linear-gradient-41"/>
    <linearGradient id="linear-gradient-60" x1="-32.757" y1="-437.874" x2="-53.427" y2="-389.319" xlink:href="#linear-gradient-3"/>
    <linearGradient id="linear-gradient-61" x1="15.359" y1="1.329" x2="16.73" y2="0.186" xlink:href="#linear-gradient-3"/>
    <linearGradient id="linear-gradient-62" x1="37.303" y1="0.641" x2="38.306" y2="0.641" xlink:href="#linear-gradient-41"/>
    <linearGradient id="linear-gradient-63" x1="1.678" y1="0.335" x2="5.237" y2="-0.079" xlink:href="#linear-gradient-3"/>
    <linearGradient id="linear-gradient-64" x1="33.073" y1="0.66" x2="34.078" y2="0.66" xlink:href="#linear-gradient-41"/>
    <linearGradient id="linear-gradient-65" x1="1.707" y1="-0.601" x2="-0.023" y2="1.073" xlink:href="#linear-gradient-46"/>
    <linearGradient id="linear-gradient-66" x1="19.665" y1="1.47" x2="22.654" y2="-0.707" xlink:href="#linear-gradient-3"/>
    <linearGradient id="linear-gradient-67" x1="15.689" y1="6.654" x2="16.304" y2="7.75" xlink:href="#linear-gradient-3"/>
    <linearGradient id="linear-gradient-68" x1="37.998" y1="17.484" x2="39.589" y2="20.491" xlink:href="#linear-gradient-3"/>
    <linearGradient id="linear-gradient-70" x1="-123.238" y1="0.051" x2="-124.698" y2="1.09" xlink:href="#linear-gradient-41"/>
    <linearGradient id="linear-gradient-71" x1="-111.072" y1="-11.78" x2="-110.136" y2="-11.78" xlink:href="#linear-gradient-41"/>
    <linearGradient id="linear-gradient-72" x1="-26.533" y1="-24.479" x2="-28.812" y2="-22.657" xlink:href="#linear-gradient-41"/>
    <linearGradient id="linear-gradient-73" x1="0.711" y1="-12.206" x2="0.648" y2="-8.436" xlink:href="#linear-gradient-2"/>
    <linearGradient id="linear-gradient-74" x1="0.895" y1="-9.257" x2="0.783" y2="-6.489" xlink:href="#linear-gradient-2"/>
    <linearGradient id="linear-gradient-75" x1="-146.514" y1="1.796" x2="-146.409" y2="0.917" xlink:href="#linear-gradient-3"/>
    <linearGradient id="linear-gradient-76" x1="-136.895" y1="0.5" x2="-135.895" y2="0.5" xlink:href="#linear-gradient-3"/>
    <linearGradient id="linear-gradient-77" x1="-114.392" y1="0.5" x2="-113.392" y2="0.5" xlink:href="#linear-gradient-3"/>
    <linearGradient id="linear-gradient-78" x1="-54.344" y1="1.189" x2="-53.075" y2="0.1" xlink:href="#linear-gradient-3"/>
    <linearGradient id="linear-gradient-79" x1="2.067" y1="-1.189" x2="1.392" y2="-0.446" xlink:href="#linear-gradient-2"/>
    <linearGradient id="linear-gradient-80" x1="0.734" y1="0.091" x2="0.41" y2="1.015" xlink:href="#linear-gradient-2"/>
    <linearGradient id="linear-gradient-81" x1="2.525" y1="-21.563" x2="1.633" y2="-11.879" xlink:href="#linear-gradient-28"/>
    <linearGradient id="linear-gradient-82" x1="-75.92" y1="-8.574" x2="-75.852" y2="-9.423" xlink:href="#linear-gradient-3"/>
    <linearGradient id="linear-gradient-83" x1="-466.672" y1="-29.573" x2="-466.251" y2="-32.744" xlink:href="#linear-gradient-3"/>
    <linearGradient id="linear-gradient-84" x1="-311.118" y1="-34.529" x2="-310.844" y2="-38.104" xlink:href="#linear-gradient-3"/>
    <linearGradient id="linear-gradient-85" x1="-39.883" y1="-45.063" x2="-43.287" y2="-41.736" xlink:href="#linear-gradient-41"/>
    <linearGradient id="linear-gradient-86" x1="5.577" y1="5.092" x2="6.125" y2="6.222" xlink:href="#linear-gradient-3"/>
    <linearGradient id="linear-gradient-87" x1="16.702" y1="14.496" x2="18.293" y2="17.502" xlink:href="#linear-gradient-3"/>
    <linearGradient id="linear-gradient-89" x1="21.836" y1="-40.072" x2="23.096" y2="-40.072" xlink:href="#linear-gradient-46"/>
    <linearGradient id="linear-gradient-90" x1="-29.737" y1="-1.265" x2="-29.767" y2="1.941" xlink:href="#linear-gradient-3"/>
    <linearGradient id="linear-gradient-91" x1="1.289" y1="-0.231" x2="-0.194" y2="1.339" xlink:href="#linear-gradient-3"/>
    <linearGradient id="linear-gradient-92" x1="0.909" y1="0.007" x2="-3.44" y2="4.143" xlink:href="#linear-gradient-3"/>
    <linearGradient id="linear-gradient-93" x1="-58.7" y1="0.194" x2="-57.7" y2="0.194" xlink:href="#linear-gradient-46"/>
    <linearGradient id="linear-gradient-94" x1="-64.95" y1="0.371" x2="-65.02" y2="2.153" xlink:href="#linear-gradient-3"/>
    <linearGradient id="linear-gradient-95" x1="-26.402" y1="1.32" x2="-25.454" y2="1.32" xlink:href="#linear-gradient-41"/>
    <linearGradient id="linear-gradient-96" x1="-88.35" y1="2.662" x2="-87.491" y2="3.922" xlink:href="#linear-gradient-41"/>
    <linearGradient id="linear-gradient-97" x1="2.534" y1="-1.07" x2="1.463" y2="-0.264" xlink:href="#linear-gradient-2"/>
    <linearGradient id="linear-gradient-98" x1="-402.948" y1="-25.687" x2="-404.687" y2="-31.453" xlink:href="#linear-gradient-3"/>
    <linearGradient id="linear-gradient-99" x1="-94.525" y1="0.315" x2="-90.604" y2="0.84" xlink:href="#linear-gradient-3"/>
    <linearGradient id="linear-gradient-100" x1="-34.728" y1="-7.135" x2="-35.102" y2="-7.83" xlink:href="#linear-gradient-41"/>
    <linearGradient id="linear-gradient-101" x1="-44.885" y1="-6.798" x2="-45.037" y2="-8.041" xlink:href="#linear-gradient-3"/>
    <linearGradient id="linear-gradient-102" x1="-45.446" y1="-11.358" x2="-45.897" y2="-12.717" xlink:href="#linear-gradient-41"/>
    <linearGradient id="linear-gradient-103" x1="-213.007" y1="-29.165" x2="-213.698" y2="-34.082" xlink:href="#linear-gradient-3"/>
  </defs>
  <g id="Grupo_64" data-name="Grupo 64" transform="translate(-519.329 -1429.653)">
    <g id="Grupo_65" data-name="Grupo 65">
      <g id="Grupo_56" data-name="Grupo 56" transform="translate(475.481 1385.206)">
        <path id="Trazado_180" data-name="Trazado 180" d="M185.874,138.313c-13.647,31.744-49.672,45.379-77.9,43.054-7.707-.635-23.213-1.912-35.321-13.306C49.4,146.18,52.984,100.442,75.242,73.514c2.866-3.468,22.707-26.7,53.626-26.39,22.637.228,38.525,12.953,40.457,14.538A62.118,62.118,0,0,1,182,75.973C193.4,93.712,194.4,118.476,185.874,138.313Z" transform="translate(-12.332 -2.545)" fill="url(#linear-gradient)"/>
        <g id="Grupo_30" data-name="Grupo 30" transform="translate(43.848 44.447)">
          <g id="Grupo_27" data-name="Grupo 27" transform="translate(31.32 5.307)">
            <path id="Trazado_181" data-name="Trazado 181" d="M694.919,209.014s8.076-8.5,6.179-14.453-8.19-14.3,2.824-27.031c6.448-7.456,9.159-10.814,10.3-12.316a1.11,1.11,0,0,1,1.769,0c3.144,4.147,12.8,18.237,7.768,28.979C717.8,196.928,694.919,209.014,694.919,209.014Z" transform="translate(-694.919 -154.774)" fill="#7d97f4"/>
            <path id="Trazado_182" data-name="Trazado 182" d="M771,288.436a63.244,63.244,0,0,1-.328,12.621c-.14,1.045-.269,2.092-.457,3.13l-.131.78-.066.39-.077.388-.311,1.552-.08.388-.091.385-.183.77-.183.77-.092.385-.1.382c-.286,1.017-.539,2.039-.879,3.049-.077.255-.171.5-.259.753s-.176.5-.27.749l-.293.741-.147.37-.158.365-.316.731-.338.721c-.111.241-.226.48-.349.715l-.362.708a43.867,43.867,0,0,1-3.367,5.385,50.332,50.332,0,0,1-4.047,4.88q-1.091,1.15-2.253,2.229c-.775.721-1.567,1.411-2.418,2.063a.284.284,0,0,1-.353-.444l.006-.005c.393-.324.785-.674,1.167-1.026s.763-.709,1.133-1.075q1.115-1.094,2.16-2.258a51.1,51.1,0,0,0,3.908-4.865,47.42,47.42,0,0,0,3.255-5.309,39.2,39.2,0,0,0,2.434-5.716c.329-.979.594-1.992.883-2.992l.106-.376.094-.38.187-.759.187-.759.094-.38.082-.382c.465-2.034.823-4.09,1.138-6.154.294-2.067.513-4.146.64-6.232a60.118,60.118,0,0,0,.117-6.263v-.008a.161.161,0,0,1,.321-.02Z" transform="translate(-750.193 -281.866)" fill="#fff" opacity="0.5"/>
          </g>
          <g id="Grupo_28" data-name="Grupo 28" transform="translate(7.274 0)">
            <path id="Trazado_183" data-name="Trazado 183" d="M230.822,132.9c1.048.928-7.233-18.516-4.295-44.656,1.385-12.318,5.44-27.111.29-34.664-4.286-6.286-24.151-8.546-30.695-9.127a.969.969,0,0,0-.886,1.514c2.3,3.333,7.053,11.015,7.072,17.438.026,8.467,6.12,15.529,12.437,18.729s9.677,5.54,9.984,17.139S227.846,130.26,230.822,132.9Z" transform="translate(-195.064 -44.447)" fill="#91b3fa"/>
            <path id="Trazado_184" data-name="Trazado 184" d="M376.388,164.56a31.566,31.566,0,0,1,10.794,6.157,24.684,24.684,0,0,1,4.183,4.679,21.309,21.309,0,0,1,2.75,5.663l.228.757c.074.253.125.512.188.768s.124.515.172.769l.148.762q.3,1.524.578,3.052.557,3.056,1.018,6.128c.617,4.1,1.111,8.21,1.355,12.352a.167.167,0,0,1-.333.028v-.005q-.337-3.072-.794-6.14t-.96-6.119l-.525-3.052-.56-3.045q-.279-1.523-.585-3.041l-.15-.76c-.05-.253-.113-.5-.169-.744s-.107-.5-.177-.739l-.215-.729a21.16,21.16,0,0,0-2.61-5.474,23.427,23.427,0,0,0-1.854-2.421l-.249-.29-.26-.28c-.174-.186-.344-.376-.522-.558-.362-.359-.72-.724-1.1-1.064a31.56,31.56,0,0,0-4.915-3.67,32.747,32.747,0,0,0-5.513-2.73l-.008,0a.134.134,0,0,1,.09-.253Z" transform="translate(-367.498 -158.776)" fill="#fff" opacity="0.5"/>
          </g>
          <g id="Grupo_29" data-name="Grupo 29" transform="translate(0 33.202)">
            <path id="Trazado_185" data-name="Trazado 185" d="M71.285,786.7c.445.631-.045-8.375,2.769-14.653s6.765-17.428,4.677-26.371-7.577-12.463-17.759-10.5c-8.485,1.636-13.49,2.093-15.937,1.4a.942.942,0,0,0-1.187.936c.085,3.349,1.037,11.427,8.013,14.453,8.9,3.86,22.209,3.589,23.007,9.89s-.946,8.709-1.98,10.975S68.342,782.525,71.285,786.7Z" transform="translate(-43.848 -734.653)" fill="#7d97f4"/>
            <path id="Trazado_186" data-name="Trazado 186" d="M369.289,912a19.633,19.633,0,0,1,2.145-.484c.722-.126,1.45-.224,2.183-.28a18.253,18.253,0,0,1,4.422.148,12.551,12.551,0,0,1,2.172.558,9.331,9.331,0,0,1,2.023,1.023c.154.113.315.215.462.338s.3.242.436.37l.8.778.744.834.679.891a12.733,12.733,0,0,1,1.884,4.048,15.848,15.848,0,0,1,.49,4.409l-.009.553c0,.184-.026.367-.037.551-.032.366-.053.734-.1,1.1l-.152,1.09c-.043.365-.133.721-.2,1.08a38.623,38.623,0,0,1-1.113,4.235.137.137,0,0,1-.263-.072v0c.34-1.409.692-2.814.9-4.243.125-.711.189-1.428.273-2.142.031-.358.042-.717.064-1.074.006-.179.026-.358.022-.537l-.006-.537a16.117,16.117,0,0,0-.565-4.215,12.418,12.418,0,0,0-1.818-3.8l-.646-.839-.71-.789-.766-.739c-.129-.12-.263-.224-.393-.337s-.278-.2-.415-.307a8.555,8.555,0,0,0-1.85-.949,11.885,11.885,0,0,0-2.033-.565,19.737,19.737,0,0,0-4.264-.29,27.652,27.652,0,0,0-4.289.469h0a.142.142,0,0,1-.067-.276Z" transform="translate(-353.536 -902.675)" fill="#fff" opacity="0.5"/>
          </g>
        </g>
        <g id="Grupo_32" data-name="Grupo 32" transform="translate(138.664 49.925)">
          <circle id="Elipse_2" data-name="Elipse 2" cx="10.398" cy="10.398" r="10.398" transform="translate(0 14.705) rotate(-45)" fill="url(#linear-gradient-2)"/>
          <g id="Grupo_31" data-name="Grupo 31" transform="translate(1.379 1.568)">
            <path id="Trazado_187" data-name="Trazado 187" d="M2308.291,732.463q-.155,0-.31,0a.118.118,0,0,1,0-.236h0c.207,0,.417,0,.624,0h0a.118.118,0,0,1,0,.236Q2308.454,732.463,2308.291,732.463Z" transform="translate(-2295.149 -706.183)" fill="#fff"/>
            <path id="Trazado_188" data-name="Trazado 188" d="M2282.528,730.675h-.009c-.21-.015-.423-.035-.632-.06a.118.118,0,1,1,.028-.234c.205.024.414.044.621.059a.118.118,0,0,1-.008.236Z" transform="translate(-2270.321 -704.428)" fill="#fff"/>
            <path id="Trazado_189" data-name="Trazado 189" d="M2334.134,730.635a.118.118,0,0,1-.008-.236c.206-.015.415-.035.621-.06a.118.118,0,0,1,.028.234c-.209.025-.422.046-.632.061Z" transform="translate(-2320.041 -704.389)" fill="#fff"/>
            <path id="Trazado_190" data-name="Trazado 190" d="M2256.73,726.378l-.02,0c-.208-.035-.418-.076-.623-.121a.118.118,0,0,1,.051-.231c.2.044.407.084.612.119a.118.118,0,0,1-.02.234Z" transform="translate(-2245.773 -700.28)" fill="#fff"/>
            <path id="Trazado_191" data-name="Trazado 191" d="M2360.1,726.306a.118.118,0,0,1-.02-.234c.2-.035.41-.075.612-.119a.118.118,0,0,1,.051.231c-.206.045-.416.086-.623.122Z" transform="translate(-2344.755 -700.211)" fill="#fff"/>
            <path id="Trazado_192" data-name="Trazado 192" d="M2231.473,719.6a.119.119,0,0,1-.031,0c-.2-.055-.408-.116-.609-.181a.118.118,0,1,1,.073-.225c.2.064.4.123.6.178a.118.118,0,0,1-.031.232Z" transform="translate(-2221.744 -693.771)" fill="#fff"/>
            <path id="Trazado_193" data-name="Trazado 193" d="M2385.634,719.5a.118.118,0,0,1-.031-.232c.2-.055.4-.115.6-.178a.118.118,0,0,1,.073.224c-.2.065-.4.126-.608.182A.117.117,0,0,1,2385.634,719.5Z" transform="translate(-2369.064 -693.675)" fill="#fff"/>
            <path id="Trazado_194" data-name="Trazado 194" d="M2206.941,710.376a.116.116,0,0,1-.042-.008c-.2-.075-.4-.156-.589-.24a.118.118,0,0,1,.094-.216c.19.083.384.162.579.235a.118.118,0,0,1-.042.229Z" transform="translate(-2198.411 -684.936)" fill="#fff"/>
            <path id="Trazado_195" data-name="Trazado 195" d="M2410.5,710.278a.118.118,0,0,1-.042-.228c.194-.073.387-.153.576-.235a.118.118,0,1,1,.094.216c-.192.084-.389.164-.586.239A.119.119,0,0,1,2410.5,710.278Z" transform="translate(-2392.738 -684.843)" fill="#fff"/>
            <path id="Trazado_196" data-name="Trazado 196" d="M2183.436,698.815a.118.118,0,0,1-.052-.012c-.189-.094-.379-.193-.563-.3a.118.118,0,1,1,.115-.206c.181.1.367.2.553.29a.118.118,0,0,1-.052.224Z" transform="translate(-2176.062 -673.878)" fill="#fff"/>
            <path id="Trazado_197" data-name="Trazado 197" d="M2434.424,698.742a.118.118,0,0,1-.052-.224c.185-.092.371-.189.551-.29a.118.118,0,1,1,.115.206c-.184.1-.372.2-.561.3A.118.118,0,0,1,2434.424,698.742Z" transform="translate(-2415.507 -673.81)" fill="#fff"/>
            <path id="Trazado_198" data-name="Trazado 198" d="M2161.171,685.043a.117.117,0,0,1-.062-.018c-.179-.111-.358-.229-.531-.349a.118.118,0,1,1,.134-.194c.171.118.346.233.522.342a.118.118,0,0,1-.062.218Z" transform="translate(-2154.897 -660.719)" fill="#fff"/>
            <path id="Trazado_199" data-name="Trazado 199" d="M2457.237,684.989a.118.118,0,0,1-.062-.218c.175-.109.351-.224.521-.342a.118.118,0,1,1,.134.194c-.173.12-.352.237-.53.348A.117.117,0,0,1,2457.237,684.989Z" transform="translate(-2437.222 -660.668)" fill="#fff"/>
            <path id="Trazado_200" data-name="Trazado 200" d="M2140.348,669.2a.117.117,0,0,1-.072-.024c-.167-.128-.334-.262-.5-.4a.118.118,0,1,1,.152-.18c.158.134.322.265.486.391a.118.118,0,0,1-.072.212Z" transform="translate(-2135.11 -645.587)" fill="#fff"/>
            <path id="Trazado_201" data-name="Trazado 201" d="M2478.728,669.157a.118.118,0,0,1-.072-.212c.165-.126.328-.257.486-.391a.118.118,0,1,1,.152.18c-.161.136-.327.27-.495.4A.117.117,0,0,1,2478.728,669.157Z" transform="translate(-2457.68 -645.551)" fill="#fff"/>
            <path id="Trazado_202" data-name="Trazado 202" d="M2121.149,651.429a.117.117,0,0,1-.08-.032c-.154-.143-.307-.292-.454-.443a.118.118,0,1,1,.169-.165c.145.148.3.295.447.435a.118.118,0,0,1-.081.2Z" transform="translate(-2116.873 -628.633)" fill="#fff"/>
            <path id="Trazado_203" data-name="Trazado 203" d="M2498.707,651.391a.118.118,0,0,1-.08-.2c.152-.142.3-.288.446-.436a.118.118,0,1,1,.169.165c-.147.15-.3.3-.454.443A.118.118,0,0,1,2498.707,651.391Z" transform="translate(-2476.697 -628.596)" fill="#fff"/>
            <path id="Trazado_204" data-name="Trazado 204" d="M2103.748,631.912a.118.118,0,0,1-.088-.04c-.14-.158-.278-.321-.41-.485a.118.118,0,1,1,.184-.148c.13.161.265.321.4.476a.118.118,0,0,1-.088.2Z" transform="translate(-2100.352 -610.015)" fill="#fff"/>
            <path id="Trazado_205" data-name="Trazado 205" d="M2516.98,631.86a.118.118,0,0,1-.088-.2c.138-.156.273-.316.4-.477a.118.118,0,0,1,.184.148c-.132.164-.27.327-.41.485A.117.117,0,0,1,2516.98,631.86Z" transform="translate(-2494.092 -609.966)" fill="#fff"/>
            <path id="Trazado_206" data-name="Trazado 206" d="M2088.314,610.824a.118.118,0,0,1-.1-.049c-.124-.171-.246-.346-.361-.522a.118.118,0,0,1,.2-.13c.113.172.232.345.354.512a.118.118,0,0,1-.1.188Z" transform="translate(-2085.706 -589.907)" fill="#fff"/>
            <path id="Trazado_207" data-name="Trazado 207" d="M2533.382,610.738a.118.118,0,0,1-.1-.187c.123-.168.242-.341.355-.513a.118.118,0,0,1,.2.13c-.115.175-.237.351-.362.523A.118.118,0,0,1,2533.382,610.738Z" transform="translate(-2509.704 -589.824)" fill="#fff"/>
            <path id="Trazado_208" data-name="Trazado 208" d="M2074.984,588.359a.118.118,0,0,1-.1-.058c-.107-.181-.211-.367-.309-.554a.118.118,0,1,1,.209-.11c.1.183.2.366.3.544a.118.118,0,0,1-.1.178Z" transform="translate(-2073.066 -568.493)" fill="#fff"/>
            <path id="Trazado_209" data-name="Trazado 209" d="M2547.75,588.211a.117.117,0,0,1-.06-.016.118.118,0,0,1-.042-.162c.105-.179.208-.362.3-.545a.118.118,0,1,1,.209.11c-.1.186-.2.373-.31.555A.118.118,0,0,1,2547.75,588.211Z" transform="translate(-2523.382 -568.35)" fill="#fff"/>
            <path id="Trazado_210" data-name="Trazado 210" d="M2063.9,564.729a.119.119,0,0,1-.107-.068c-.089-.192-.175-.387-.254-.581a.118.118,0,0,1,.219-.089c.078.19.161.382.249.57a.118.118,0,0,1-.107.168Z" transform="translate(-2062.565 -545.974)" fill="#fff"/>
            <path id="Trazado_211" data-name="Trazado 211" d="M2559.944,564.486a.118.118,0,0,1-.107-.168c.088-.189.172-.381.25-.573a.118.118,0,1,1,.219.089c-.079.195-.165.391-.254.583A.118.118,0,0,1,2559.944,564.486Z" transform="translate(-2534.988 -545.74)" fill="#fff"/>
            <path id="Trazado_212" data-name="Trazado 212" d="M2055.135,540.091a.118.118,0,0,1-.111-.079c-.07-.2-.136-.4-.2-.6a.118.118,0,0,1,.226-.068c.059.2.124.4.193.593a.118.118,0,0,1-.111.157Z" transform="translate(-2054.278 -522.499)" fill="#fff"/>
            <path id="Trazado_213" data-name="Trazado 213" d="M2569.832,539.809a.117.117,0,0,1-.039-.007.118.118,0,0,1-.072-.151c.069-.2.134-.395.193-.593a.118.118,0,1,1,.226.067c-.06.2-.126.405-.2.6A.118.118,0,0,1,2569.832,539.809Z" transform="translate(-2544.401 -522.23)" fill="#fff"/>
            <path id="Trazado_214" data-name="Trazado 214" d="M2048.814,514.715a.118.118,0,0,1-.115-.09c-.051-.206-.1-.414-.137-.62a.118.118,0,0,1,.232-.045c.04.2.085.407.135.609a.118.118,0,0,1-.086.143A.12.12,0,0,1,2048.814,514.715Z" transform="translate(-2048.318 -498.328)" fill="#fff"/>
            <path id="Trazado_215" data-name="Trazado 215" d="M2577.3,514.427a.12.12,0,0,1-.028,0,.118.118,0,0,1-.086-.143c.05-.2.094-.407.134-.609a.118.118,0,0,1,.232.045c-.04.206-.086.415-.136.62A.118.118,0,0,1,2577.3,514.427Z" transform="translate(-2551.507 -498.054)" fill="#fff"/>
            <path id="Trazado_216" data-name="Trazado 216" d="M2044.98,488.85a.118.118,0,0,1-.117-.1c-.031-.209-.056-.421-.076-.63a.118.118,0,1,1,.235-.023c.02.206.045.414.075.619a.118.118,0,0,1-.1.134Z" transform="translate(-2044.725 -473.699)" fill="#fff"/>
            <path id="Trazado_217" data-name="Trazado 217" d="M2582.294,488.553h-.017a.118.118,0,0,1-.1-.134c.03-.2.055-.413.074-.619a.118.118,0,1,1,.235.022c-.02.21-.045.422-.076.63A.118.118,0,0,1,2582.294,488.553Z" transform="translate(-2556.263 -473.415)" fill="#fff"/>
            <path id="Trazado_218" data-name="Trazado 218" d="M2043.646,462.729a.118.118,0,0,1-.118-.112c-.01-.209-.016-.423-.016-.635a.118.118,0,0,1,.118-.118h0a.118.118,0,0,1,.118.118c0,.208.005.418.016.624a.118.118,0,0,1-.112.124Z" transform="translate(-2043.512 -448.83)" fill="#fff"/>
            <path id="Trazado_219" data-name="Trazado 219" d="M2584.785,461.883h-.006a.118.118,0,0,1-.112-.124c.01-.206.015-.415.015-.623v-.028a.118.118,0,1,1,.236,0v.028c0,.212-.005.425-.015.635A.118.118,0,0,1,2584.785,461.883Z" transform="translate(-2558.635 -447.998)" fill="#fff"/>
            <path id="Trazado_220" data-name="Trazado 220" d="M2043.929,436.6h-.005a.118.118,0,0,1-.112-.123c.01-.211.025-.424.045-.633a.118.118,0,1,1,.235.022c-.019.206-.034.415-.044.622A.118.118,0,0,1,2043.929,436.6Z" transform="translate(-2043.797 -423.962)" fill="#fff"/>
            <path id="Trazado_221" data-name="Trazado 221" d="M2583.839,435.73a.118.118,0,0,1-.118-.112c-.01-.207-.026-.416-.046-.622a.118.118,0,0,1,.235-.023c.021.21.036.423.047.633a.118.118,0,0,1-.112.124Z" transform="translate(-2557.691 -423.13)" fill="#fff"/>
            <path id="Trazado_222" data-name="Trazado 222" d="M2046.394,410.711h-.017a.118.118,0,0,1-.1-.134c.03-.208.065-.419.105-.626a.118.118,0,1,1,.232.045c-.039.2-.074.411-.1.615A.118.118,0,0,1,2046.394,410.711Z" transform="translate(-2046.143 -399.321)" fill="#fff"/>
            <path id="Trazado_223" data-name="Trazado 223" d="M2580.1,409.849a.118.118,0,0,1-.117-.1c-.03-.205-.065-.412-.105-.615a.118.118,0,0,1,.232-.046c.041.206.077.417.107.626a.118.118,0,0,1-.1.134Z" transform="translate(-2554.074 -398.501)" fill="#fff"/>
            <path id="Trazado_224" data-name="Trazado 224" d="M2051.361,385.293a.118.118,0,0,1-.115-.146c.05-.2.106-.41.166-.613a.118.118,0,0,1,.226.067c-.059.2-.114.4-.163.6A.118.118,0,0,1,2051.361,385.293Z" transform="translate(-2050.871 -375.139)" fill="#fff"/>
            <path id="Trazado_225" data-name="Trazado 225" d="M2573.869,384.452a.118.118,0,0,1-.115-.09c-.05-.2-.105-.4-.165-.6a.118.118,0,1,1,.226-.068c.061.2.117.408.168.612a.118.118,0,0,1-.086.143A.117.117,0,0,1,2573.869,384.452Z" transform="translate(-2548.085 -374.339)" fill="#fff"/>
            <path id="Trazado_226" data-name="Trazado 226" d="M2058.8,360.565a.116.116,0,0,1-.039-.007.118.118,0,0,1-.073-.15c.07-.2.146-.4.225-.6a.118.118,0,0,1,.219.089c-.078.192-.153.389-.221.585A.118.118,0,0,1,2058.8,360.565Z" transform="translate(-2057.951 -351.618)" fill="#fff"/>
            <path id="Trazado_227" data-name="Trazado 227" d="M2565.2,359.78a.118.118,0,0,1-.111-.079c-.069-.195-.144-.391-.222-.582a.118.118,0,1,1,.218-.09c.08.2.156.395.227.593a.118.118,0,0,1-.111.157Z" transform="translate(-2539.774 -350.872)" fill="url(#linear-gradient-3)"/>
            <path id="Trazado_228" data-name="Trazado 228" d="M2068.661,336.779a.118.118,0,0,1-.107-.168c.089-.192.184-.384.282-.57a.118.118,0,1,1,.209.11c-.1.183-.189.371-.277.56A.118.118,0,0,1,2068.661,336.779Z" transform="translate(-2067.339 -328.999)" fill="url(#linear-gradient-3)"/>
            <path id="Trazado_229" data-name="Trazado 229" d="M2554.193,336.111a.118.118,0,0,1-.107-.068c-.087-.187-.181-.374-.277-.557a.118.118,0,1,1,.209-.11c.1.186.193.377.282.567a.118.118,0,0,1-.107.168Z" transform="translate(-2529.248 -328.365)" fill="url(#linear-gradient-3)"/>
            <path id="Trazado_230" data-name="Trazado 230" d="M2080.829,314.177a.118.118,0,0,1-.1-.178c.107-.182.22-.363.335-.54a.118.118,0,1,1,.2.129c-.113.173-.224.352-.329.53A.118.118,0,0,1,2080.829,314.177Z" transform="translate(-2078.921 -307.513)" fill="url(#linear-gradient-3)"/>
            <path id="Trazado_231" data-name="Trazado 231" d="M2540.946,313.6a.118.118,0,0,1-.1-.058c-.105-.178-.216-.355-.33-.528a.118.118,0,0,1,.2-.13c.116.176.229.357.336.538a.118.118,0,0,1-.1.178Z" transform="translate(-2516.588 -306.967)" fill="url(#linear-gradient-3)"/>
            <path id="Trazado_232" data-name="Trazado 232" d="M2095.174,292.965a.117.117,0,0,1-.069-.023.118.118,0,0,1-.026-.165c.124-.171.254-.341.386-.5a.118.118,0,0,1,.184.148c-.129.161-.257.328-.379.5A.118.118,0,0,1,2095.174,292.965Z" transform="translate(-2092.577 -287.354)" fill="url(#linear-gradient-3)"/>
            <path id="Trazado_233" data-name="Trazado 233" d="M2525.585,292.459a.117.117,0,0,1-.1-.048c-.122-.166-.249-.333-.38-.494a.118.118,0,0,1,.184-.148c.133.164.263.334.386.5a.118.118,0,0,1-.1.188Z" transform="translate(-2501.918 -286.874)" fill="url(#linear-gradient-3)"/>
            <path id="Trazado_234" data-name="Trazado 234" d="M2111.553,273.334a.118.118,0,0,1-.088-.2c.14-.158.285-.314.432-.465a.118.118,0,0,1,.169.165c-.144.148-.287.3-.424.457A.118.118,0,0,1,2111.553,273.334Z" transform="translate(-2108.168 -268.705)" fill="url(#linear-gradient-3)"/>
            <path id="Trazado_235" data-name="Trazado 235" d="M2508.257,272.88a.118.118,0,0,1-.088-.04c-.138-.155-.281-.308-.426-.456a.118.118,0,0,1,.169-.165c.147.15.293.307.433.464a.118.118,0,0,1-.088.2Z" transform="translate(-2485.379 -268.274)" fill="url(#linear-gradient-3)"/>
            <path id="Trazado_236" data-name="Trazado 236" d="M2129.81,255.461a.118.118,0,0,1-.081-.2c.154-.143.313-.285.475-.421a.118.118,0,0,1,.153.18c-.158.134-.315.273-.466.414A.117.117,0,0,1,2129.81,255.461Z" transform="translate(-2125.546 -251.733)" fill="url(#linear-gradient-3)"/>
            <path id="Trazado_237" data-name="Trazado 237" d="M2489.12,255.046a.118.118,0,0,1-.08-.032c-.152-.141-.309-.28-.467-.413a.118.118,0,1,1,.152-.181c.161.136.321.277.476.421a.118.118,0,0,1-.08.2Z" transform="translate(-2467.122 -251.339)" fill="url(#linear-gradient-3)"/>
            <path id="Trazado_238" data-name="Trazado 238" d="M2149.767,239.508a.118.118,0,0,1-.072-.212c.167-.128.34-.254.513-.374a.118.118,0,1,1,.135.194c-.17.118-.339.241-.5.367A.118.118,0,0,1,2149.767,239.508Z" transform="translate(-2144.543 -236.592)" fill="url(#linear-gradient-3)"/>
            <path id="Trazado_239" data-name="Trazado 239" d="M2468.355,239.123a.117.117,0,0,1-.072-.024c-.165-.126-.335-.249-.505-.366a.118.118,0,1,1,.134-.194c.173.119.346.245.514.373a.118.118,0,0,1-.072.212Z" transform="translate(-2447.32 -236.227)" fill="url(#linear-gradient-3)"/>
            <path id="Trazado_240" data-name="Trazado 240" d="M2171.244,225.629a.118.118,0,0,1-.062-.218c.179-.112.363-.22.546-.323a.118.118,0,1,1,.115.206c-.18.1-.36.207-.536.317A.117.117,0,0,1,2171.244,225.629Z" transform="translate(-2164.987 -223.43)" fill="url(#linear-gradient-3)"/>
            <path id="Trazado_241" data-name="Trazado 241" d="M2446.137,225.271a.118.118,0,0,1-.062-.018c-.176-.109-.357-.215-.538-.316a.118.118,0,1,1,.115-.206c.185.1.369.211.548.322a.118.118,0,0,1-.062.218Z" transform="translate(-2426.14 -223.089)" fill="url(#linear-gradient-3)"/>
            <path id="Trazado_242" data-name="Trazado 242" d="M2194.042,213.954a.118.118,0,0,1-.053-.224c.189-.094.382-.184.574-.268a.118.118,0,0,1,.094.216c-.188.083-.378.171-.564.263A.118.118,0,0,1,2194.042,213.954Z" transform="translate(-2186.688 -212.367)" fill="url(#linear-gradient-3)"/>
            <path id="Trazado_243" data-name="Trazado 243" d="M2422.674,213.625a.116.116,0,0,1-.052-.012c-.186-.092-.376-.18-.567-.263a.118.118,0,0,1,.094-.217c.194.084.388.174.577.267a.118.118,0,0,1-.052.224Z" transform="translate(-2403.778 -212.055)" fill="url(#linear-gradient-3)"/>
            <path id="Trazado_244" data-name="Trazado 244" d="M2217.949,204.594a.118.118,0,0,1-.042-.228c.2-.075.4-.146.6-.212a.118.118,0,1,1,.073.224c-.2.064-.395.134-.588.208A.116.116,0,0,1,2217.949,204.594Z" transform="translate(-2209.446 -203.511)" fill="url(#linear-gradient-3)"/>
            <path id="Trazado_245" data-name="Trazado 245" d="M2398.176,204.314a.118.118,0,0,1-.042-.008c-.194-.073-.392-.143-.59-.206a.118.118,0,1,1,.073-.225c.2.065.4.136.6.21a.118.118,0,0,1-.042.229Z" transform="translate(-2380.435 -203.246)" fill="url(#linear-gradient-3)"/>
            <path id="Trazado_246" data-name="Trazado 246" d="M2242.812,197.64a.118.118,0,0,1-.031-.232c.2-.056.41-.107.616-.152a.118.118,0,1,1,.051.231c-.2.045-.406.1-.605.15A.117.117,0,0,1,2242.812,197.64Z" transform="translate(-2233.112 -196.947)" fill="url(#linear-gradient-3)"/>
            <path id="Trazado_247" data-name="Trazado 247" d="M2372.941,197.442a.117.117,0,0,1-.031,0c-.2-.054-.4-.1-.606-.148a.118.118,0,0,1,.05-.231c.206.045.413.1.617.15a.118.118,0,0,1-.031.232Z" transform="translate(-2356.4 -196.761)" fill="url(#linear-gradient-3)"/>
            <path id="Trazado_248" data-name="Trazado 248" d="M2268.344,193.165a.118.118,0,0,1-.02-.234c.207-.036.419-.066.628-.092a.118.118,0,0,1,.029.234c-.206.025-.413.056-.617.09Z" transform="translate(-2257.416 -192.745)" fill="url(#linear-gradient-3)"/>
            <path id="Trazado_249" data-name="Trazado 249" d="M2347.161,193.057l-.02,0c-.2-.034-.412-.064-.617-.088a.118.118,0,0,1,.028-.234c.209.025.421.055.628.09a.118.118,0,0,1-.019.235Z" transform="translate(-2331.848 -192.644)" fill="url(#linear-gradient-3)"/>
            <path id="Trazado_250" data-name="Trazado 250" d="M2294.3,191.195a.118.118,0,0,1-.009-.236c.21-.015.423-.026.634-.031a.118.118,0,1,1,.006.236c-.208.005-.417.016-.623.031Z" transform="translate(-2282.125 -190.927)" fill="url(#linear-gradient-3)"/>
            <path id="Trazado_251" data-name="Trazado 251" d="M2321.078,191.17h-.008c-.206-.014-.416-.024-.623-.029a.118.118,0,1,1,.005-.236c.211,0,.425.014.634.029a.118.118,0,0,1-.008.236Z" transform="translate(-2307.015 -190.905)" fill="url(#linear-gradient-3)"/>
          </g>
        </g>
        <g id="Grupo_42" data-name="Grupo 42" transform="translate(44.03 66.354)">
          <g id="Grupo_41" data-name="Grupo 41" transform="translate(0 0)">
            <rect id="Rectángulo_41" data-name="Rectángulo 41" width="28.507" height="54.977" transform="translate(102.939 41.461)" fill="#91b3fa"/>
            <path id="Trazado_252" data-name="Trazado 252" d="M2064.643,970.283h-32.223l-5.9-24.774h31.221l8.169,22.7A1.46,1.46,0,0,1,2064.643,970.283Z" transform="translate(-1931.327 -924.071)" fill="url(#linear-gradient-28)"/>
            <path id="Trazado_253" data-name="Trazado 253" d="M1960.565,895.058l-35.159.147-.974-3.053,33.975.191a1.954,1.954,0,0,1,2.157,1.646Z" transform="translate(-1834.148 -873.28)" fill="url(#linear-gradient-29)"/>
            <g id="Grupo_34" data-name="Grupo 34" transform="translate(109.133 56.393)" opacity="0.89">
              <rect id="Rectángulo_42" data-name="Rectángulo 42" width="16.289" height="25.113" rx="1.123" fill="#fff" opacity="0.71"/>
              <g id="Grupo_33" data-name="Grupo 33" transform="translate(1.188 1.357)">
                <rect id="Rectángulo_43" data-name="Rectángulo 43" width="6.325" height="22.398" rx="0.624" fill="#7d97f4"/>
                <rect id="Rectángulo_44" data-name="Rectángulo 44" width="6.325" height="22.398" rx="0.624" transform="translate(7.589)" fill="#7d97f4"/>
              </g>
            </g>
            <path id="Rectángulo_45" data-name="Rectángulo 45" d="M0,0H18.33A10.176,10.176,0,0,1,28.507,10.176v44.8a0,0,0,0,1,0,0H0a0,0,0,0,1,0,0V0A0,0,0,0,1,0,0Z" transform="translate(31.61 96.438) rotate(180)" fill="#91b3fa"/>
            <path id="Trazado_254" data-name="Trazado 254" d="M49.025,939.633H81.261L92.768,913.31l-36.841,1.549-8.172,22.7A1.46,1.46,0,0,0,49.025,939.633Z" transform="translate(-47.624 -893.421)" fill="url(#linear-gradient-30)"/>
            <path id="Trazado_255" data-name="Trazado 255" d="M220.234,890.023l37.328-.616,2.922-2.545-37.925.446c-1.284,0-2.325.737-2.325,1.646Z" transform="translate(-211.931 -868.245)" fill="url(#linear-gradient-31)"/>
            <g id="Grupo_36" data-name="Grupo 36" transform="translate(9.127 56.393)" opacity="0.89">
              <rect id="Rectángulo_46" data-name="Rectángulo 46" width="16.289" height="25.113" rx="1.123" transform="translate(16.289 25.113) rotate(180)" fill="#fff" opacity="0.71"/>
              <g id="Grupo_35" data-name="Grupo 35" transform="translate(1.188 1.357)">
                <rect id="Rectángulo_47" data-name="Rectángulo 47" width="6.325" height="22.398" rx="0.624" transform="translate(13.914 22.398) rotate(180)" fill="#7d97f4"/>
                <rect id="Rectángulo_48" data-name="Rectángulo 48" width="6.325" height="22.398" rx="0.624" transform="translate(6.325 22.398) rotate(180)" fill="#91b3fa"/>
              </g>
            </g>
            <path id="Trazado_256" data-name="Trazado 256" d="M662.43,646.934s-38.647,29.176-39.6,29.176v60.613a2,2,0,0,0,2,2h75.437a1.772,1.772,0,0,0,1.772-1.772V676.11Z" transform="translate(-595.156 -639.859)" fill="#bdd0fb"/>
            <g id="Grupo_39" data-name="Grupo 39" transform="translate(32.876 40.281)">
              <path id="Trazado_257" data-name="Trazado 257" d="M1178.606,2422.15h-24.559v-3.65a.516.516,0,0,1,.516-.516h23.527a.516.516,0,0,1,.516.516Z" transform="translate(-1133.698 -2365.993)" fill="#7d97f4"/>
              <path id="Rectángulo_49" data-name="Rectángulo 49" d="M3.171,0H21.388a3.17,3.17,0,0,1,3.17,3.17v1a0,0,0,0,1,0,0H0a0,0,0,0,1,0,0v-1A3.171,3.171,0,0,1,3.171,0Z" transform="translate(20.349 55.295)" fill="#91b3fa"/>
              <path id="Rectángulo_50" data-name="Rectángulo 50" d="M3.56,0H13.2a3.56,3.56,0,0,1,3.56,3.56V32.7a0,0,0,0,1,0,0H0a0,0,0,0,1,0,0V3.56A3.56,3.56,0,0,1,3.56,0Z" transform="translate(24.247 19.291)" fill="url(#linear-gradient-32)"/>
              <path id="Trazado_258" data-name="Trazado 258" d="M1250.662,1605.383h-14.4a1.183,1.183,0,0,1-1.184-1.183v-1.034a1.184,1.184,0,0,1,1.1-1.181l14.4-1a1.184,1.184,0,0,1,1.266,1.181v2.034A1.183,1.183,0,0,1,1250.662,1605.383Z" transform="translate(-1210.836 -1588.293)" fill="#bdd0fb" opacity="0.9"/>
              <g id="Grupo_37" data-name="Grupo 37" transform="translate(46.397 2.563)">
                <path id="Trazado_259" data-name="Trazado 259" d="M1703.454,1390.494h-.159c-4.14,0-7.764,2.931-7.764,7.071v7.456h7.923Z" transform="translate(-1695.531 -1390.494)" fill="#7d97f4" opacity="0.9"/>
                <path id="Trazado_260" data-name="Trazado 260" d="M1695.531,1738.221v21.934c0,.739.867,1.884,1.606,1.884h6.318v-23.818Z" transform="translate(-1695.531 -1721.494)" fill="#7d97f4" opacity="0.9"/>
                <path id="Trazado_261" data-name="Trazado 261" d="M1897.249,1390.494h-.4v14.526h7.924v-7.456C1904.77,1393.425,1901.389,1390.494,1897.249,1390.494Z" transform="translate(-1887.162 -1390.494)" fill="#7d97f4" opacity="0.9"/>
                <path id="Trazado_262" data-name="Trazado 262" d="M1896.846,1762.039h6.561c.739,0,1.362-1.145,1.362-1.884v-21.934h-7.924Z" transform="translate(-1887.162 -1721.494)" fill="#7d97f4" opacity="0.9"/>
              </g>
              <g id="Grupo_38" data-name="Grupo 38" transform="translate(2.755 2.563)">
                <path id="Trazado_263" data-name="Trazado 263" d="M796.234,1390.494h-.159c-4.14,0-7.764,2.931-7.764,7.071v7.456h7.923Z" transform="translate(-788.311 -1390.494)" fill="#7d97f4" opacity="0.9"/>
                <path id="Trazado_264" data-name="Trazado 264" d="M788.311,1738.221v21.934c0,.739.867,1.884,1.606,1.884h6.318v-23.818Z" transform="translate(-788.311 -1721.494)" fill="#7d97f4"/>
                <path id="Trazado_265" data-name="Trazado 265" d="M990.029,1390.494h-.4v14.526h7.923v-7.456C997.549,1393.425,994.169,1390.494,990.029,1390.494Z" transform="translate(-979.942 -1390.494)" fill="#7d97f4" opacity="0.9"/>
                <path id="Trazado_266" data-name="Trazado 266" d="M989.626,1762.039h6.561c.739,0,1.362-1.145,1.362-1.884v-21.934h-7.923Z" transform="translate(-979.942 -1721.494)" fill="#7d97f4" opacity="0.9"/>
              </g>
              <path id="Trazado_267" data-name="Trazado 267" d="M1280.588,1804.619h-2.53a1.532,1.532,0,0,1-1.53-1.53v-18.7a1.532,1.532,0,0,1,1.53-1.53h2.53a1.532,1.532,0,0,1,1.53,1.53v18.7A1.532,1.532,0,0,1,1280.588,1804.619Zm-2.53-21.579a1.348,1.348,0,0,0-1.346,1.346v18.7a1.348,1.348,0,0,0,1.346,1.346h2.53a1.348,1.348,0,0,0,1.346-1.346v-18.7a1.348,1.348,0,0,0-1.346-1.346Z" transform="translate(-1250.287 -1761.419)" fill="url(#linear-gradient-3)"/>
              <path id="Trazado_268" data-name="Trazado 268" d="M1427.344,1804.619h-2.53a1.532,1.532,0,0,1-1.53-1.53v-18.7a1.532,1.532,0,0,1,1.53-1.53h2.53a1.532,1.532,0,0,1,1.53,1.53v18.7A1.532,1.532,0,0,1,1427.344,1804.619Zm-2.53-21.579a1.348,1.348,0,0,0-1.346,1.346v18.7a1.348,1.348,0,0,0,1.346,1.346h2.53a1.348,1.348,0,0,0,1.346-1.346v-18.7a1.348,1.348,0,0,0-1.346-1.346Z" transform="translate(-1389.984 -1761.419)" fill="url(#linear-gradient-3)"/>
              <path id="Trazado_269" data-name="Trazado 269" d="M1280.588,2263.21h-2.53a1.532,1.532,0,0,1-1.53-1.53v-2.151a1.532,1.532,0,0,1,1.53-1.53h2.53a1.532,1.532,0,0,1,1.53,1.53v2.151A1.532,1.532,0,0,1,1280.588,2263.21Zm-2.53-5.027a1.348,1.348,0,0,0-1.346,1.346v2.151a1.348,1.348,0,0,0,1.346,1.346h2.53a1.348,1.348,0,0,0,1.346-1.346v-2.151a1.348,1.348,0,0,0-1.346-1.346Z" transform="translate(-1250.287 -2213.704)" fill="url(#linear-gradient-3)"/>
              <path id="Trazado_270" data-name="Trazado 270" d="M1427.344,2263.21h-2.53a1.532,1.532,0,0,1-1.53-1.53v-2.151a1.532,1.532,0,0,1,1.53-1.53h2.53a1.532,1.532,0,0,1,1.53,1.53v2.151A1.532,1.532,0,0,1,1427.344,2263.21Zm-2.53-5.027a1.348,1.348,0,0,0-1.346,1.346v2.151a1.348,1.348,0,0,0,1.346,1.346h2.53a1.348,1.348,0,0,0,1.346-1.346v-2.151a1.348,1.348,0,0,0-1.346-1.346Z" transform="translate(-1389.984 -2213.704)" fill="url(#linear-gradient-3)"/>
              <path id="Trazado_271" data-name="Trazado 271" d="M1659.136,1381.685h-19.073a1.986,1.986,0,0,1-1.984-1.984v-33.024a9.482,9.482,0,0,1,9.471-9.471h4.1a9.482,9.482,0,0,1,9.471,9.471V1379.7A1.986,1.986,0,0,1,1659.136,1381.685Zm-11.586-44.295a9.3,9.3,0,0,0-9.287,9.287V1379.7a1.8,1.8,0,0,0,1.8,1.8h19.073a1.8,1.8,0,0,0,1.8-1.8v-33.024a9.3,9.3,0,0,0-9.287-9.287Z" transform="translate(-1594.446 -1337.206)" fill="#fff"/>
              <path id="Trazado_272" data-name="Trazado 272" d="M752.094,1381.685H733.02a1.986,1.986,0,0,1-1.983-1.984v-33.024a9.482,9.482,0,0,1,9.471-9.471h4.1a9.482,9.482,0,0,1,9.471,9.471V1379.7A1.986,1.986,0,0,1,752.094,1381.685Zm-11.586-44.295a9.3,9.3,0,0,0-9.287,9.287V1379.7a1.8,1.8,0,0,0,1.8,1.8h19.074a1.8,1.8,0,0,0,1.8-1.8v-33.024a9.3,9.3,0,0,0-9.287-9.287Z" transform="translate(-731.037 -1337.206)" fill="#fff"/>
            </g>
            <g id="Grupo_40" data-name="Grupo 40" transform="translate(23.453)">
              <rect id="Rectángulo_51" data-name="Rectángulo 51" width="6.552" height="10.668" transform="translate(61.165 7.713)" fill="url(#linear-gradient-37)"/>
              <path id="Rectángulo_52" data-name="Rectángulo 52" d="M2.152,0H7.314A3.276,3.276,0,0,1,10.59,3.276v0a0,0,0,0,1,0,0H0a0,0,0,0,1,0,0V2.152A2.152,2.152,0,0,1,2.152,0Z" transform="translate(59.286 6.165)" fill="url(#linear-gradient-38)"/>
              <path id="Trazado_273" data-name="Trazado 273" d="M536.942,539.162l42.033-32.235,39.9,30.948a2.477,2.477,0,0,0,3.945-1.461l.56-2.737-44.4-33.825-42.98,32.829a2.141,2.141,0,0,0-.681,2.515Z" transform="translate(-535.153 -499.852)" fill="url(#linear-gradient-39)"/>
            </g>
          </g>
        </g>
        <g id="Grupo_45" data-name="Grupo 45" transform="translate(55.902 119.384)">
          <g id="Grupo_43" data-name="Grupo 43" transform="translate(0)">
            <path id="Trazado_274" data-name="Trazado 274" d="M297.908,1602.477a5.439,5.439,0,0,0-2.819,1.5c-2.048,2.908,1.1,6.936,2.178,9.609a22.13,22.13,0,0,1,1.106,14.4c-1.48,5.2-2.411,10.327-1.721,15.659A13.717,13.717,0,0,0,300,1651.5c3.947,4.135,14.151,1.819,16.172-2.843,1.612-3.718,1.064-7.757-.017-11.465-1.819-6.237-4.832-12.154-6.7-18.378-1.427-4.759-.658-14.25-7.323-16.318A8.451,8.451,0,0,0,297.908,1602.477Z" transform="translate(-294.412 -1602.217)" fill="#7d97f4"/>
            <path id="Trazado_275" data-name="Trazado 275" d="M388.174,1697.253a.315.315,0,0,1-.1-.012.31.31,0,0,1-.213-.384,70.9,70.9,0,0,0-.565-39.878,68.287,68.287,0,0,0-7.272-16.5.31.31,0,0,1,.516-.344,68.9,68.9,0,0,1,7.343,16.64,71.516,71.516,0,0,1,.573,40.249A.31.31,0,0,1,388.174,1697.253Z" transform="translate(-375.854 -1638.183)" fill="#91b3fa"/>
          </g>
          <g id="Grupo_44" data-name="Grupo 44" transform="translate(14.988 14.374)">
            <path id="Trazado_276" data-name="Trazado 276" d="M606.024,1927.614c-.318-3.743,1.308-7.908,2.239-11.782a18.9,18.9,0,0,0,.6-6.2c-.194-2.1-1.021-4.406.014-6.414,2.086-4.046,6.268-1.867,8.528,1.431,2.623,3.828,3.014,9.825,3.8,14.476a79.548,79.548,0,0,1,1.435,8.536c.266,4.7-1,7.863-3.374,9.9a6.761,6.761,0,0,1-8.08.546C608.906,1936.633,606.538,1933.651,606.024,1927.614Z" transform="translate(-605.983 -1901.018)" fill="#91b3fa"/>
            <path id="Trazado_277" data-name="Trazado 277" d="M764.371,2008.055a.31.31,0,0,1-.38-.372c.052-.221,5.159-22.3-.9-40.661a.31.31,0,0,1,.589-.194c6.11,18.528.963,40.775.91,41A.31.31,0,0,1,764.371,2008.055Z" transform="translate(-755.523 -1963.46)" fill="#7d97f4" opacity="0.9"/>
          </g>
        </g>
        <g id="Grupo_55" data-name="Grupo 55" transform="translate(113.952 110.745)">
          <g id="Grupo_48" data-name="Grupo 48">
            <path id="Trazado_278" data-name="Trazado 278" d="M2158.054,1974.421a10,10,0,0,0,2.353,1.663,19.312,19.312,0,0,1-4.19,3.849l-.507,1.188-1.717-1.992A9.148,9.148,0,0,0,2158.054,1974.421Z" transform="translate(-2122.588 -1947.877)" fill="url(#linear-gradient-40)"/>
            <path id="Trazado_279" data-name="Trazado 279" d="M2063.8,2700.892a.43.43,0,0,1,.009-.11c.511-2.172,3.2-3.563,3.2-3.563l1.074.067a7.445,7.445,0,0,1,.5,3.59c0,.015-.007.029-.01.043A25.481,25.481,0,0,1,2063.8,2700.892Z" transform="translate(-2036.736 -2635.905)" fill="url(#linear-gradient-41)"/>
            <path id="Trazado_280" data-name="Trazado 280" d="M2068.576,2773.6a.465.465,0,0,1-.335.349,14.721,14.721,0,0,1-4.1.008.391.391,0,0,1-.33-.384A25.481,25.481,0,0,0,2068.576,2773.6Z" transform="translate(-2036.742 -2708.586)" fill="#7d97f4"/>
            <path id="Trazado_281" data-name="Trazado 281" d="M2125.735,2665.233l-.419,2.2a.358.358,0,0,1-.3.3,3.038,3.038,0,0,1-.7,0,.45.45,0,0,1-.365-.523l.284-1.948Z" transform="translate(-2093.982 -2605.458)" fill="url(#linear-gradient-42)"/>
            <path id="Trazado_282" data-name="Trazado 282" d="M1870.452,2770.168a6.411,6.411,0,0,0,2.11-.336c0,.118,0,.238,0,.362a.234.234,0,0,1-.219.242l-6.509.063a.3.3,0,0,1-.246-.429C1866.445,2770.126,1868.621,2770.249,1870.452,2770.168Z" transform="translate(-1848.033 -2705.025)" fill="#7d97f4"/>
            <path id="Trazado_283" data-name="Trazado 283" d="M1866.144,2709.651a.286.286,0,0,1,.025-.05,8.293,8.293,0,0,1,4.881-3.175l1.387-.066a6.66,6.66,0,0,1,.679,3.053,6.411,6.411,0,0,1-2.11.336C1869.174,2709.831,1867,2709.708,1866.144,2709.651Z" transform="translate(-1848.586 -2644.606)" fill="url(#linear-gradient-43)"/>
            <path id="Trazado_284" data-name="Trazado 284" d="M1965.926,2656.469c-.014.1-.179,1.679-.242,2.29a.3.3,0,0,1-.25.277,3.179,3.179,0,0,1-.953,0,.41.41,0,0,1-.318-.407l-.04-2.468Z" transform="translate(-1941.851 -2596.823)" fill="url(#linear-gradient-44)"/>
            <path id="Trazado_285" data-name="Trazado 285" d="M1958.828,2063.436a123.576,123.576,0,0,0-2.824,28.78.619.619,0,0,0,.5.6,7.22,7.22,0,0,0,1.554.155.575.575,0,0,0,.54-.489c.425-2.76,2.868-18.308,4.362-20.849,0,0,1.232,13.792,1.025,20.962a.34.34,0,0,0,.305.348,5.7,5.7,0,0,0,1.246-.023.455.455,0,0,0,.4-.392c.3-2.335,2-16.23,1.755-26.217a15.186,15.186,0,0,0-1.538-2.988Z" transform="translate(-1934.102 -2032.498)" fill="url(#linear-gradient-45)"/>
            <path id="Trazado_286" data-name="Trazado 286" d="M1913.232,1655.511l1.571-2.695c4.115-3.071,10.409-1.652,12.839-1.385a3.239,3.239,0,0,1,2.064,1.066c2.117,2.371,6.783,8.882,1.522,15.6a10,10,0,0,1-2.353-1.663,8.2,8.2,0,0,0-.706-6.426,6.118,6.118,0,0,1-.149.619,38.174,38.174,0,0,0-1.626,11.027.344.344,0,0,1-.211.325c-2.243.941-6.6.473-8.059.279a.491.491,0,0,1-.419-.55c.632-5.2-3.179-13.671-4.184-15.792A1.423,1.423,0,0,0,1913.232,1655.511Z" transform="translate(-1893.409 -1639.892)" fill="url(#linear-gradient-46)"/>
            <path id="Trazado_287" data-name="Trazado 287" d="M2054.595,1571.374l.507,4.438a5.56,5.56,0,0,1-4.328-.46l1.213-4.06Z" transform="translate(-2024.335 -1564.14)" fill="url(#linear-gradient-47)"/>
            <g id="Grupo_46" data-name="Grupo 46" transform="translate(24.059)">
              <path id="Trazado_288" data-name="Trazado 288" d="M2019.507,1464.816c-.059.058-2.46,4.967-2.46,4.967l2.832,1.312,2.967-4.315S2020.5,1463.851,2019.507,1464.816Z" transform="translate(-2016.289 -1462.601)" fill="url(#linear-gradient-48)"/>
              <path id="Trazado_289" data-name="Trazado 289" d="M2006.612,1426.948a.449.449,0,0,1-.027.394l-1.364,2.359a.433.433,0,0,1-.075.1.736.736,0,0,1-1.179.011,3.952,3.952,0,0,0-1.127-1.179.448.448,0,0,0-.6.209,16.733,16.733,0,0,0-.923,2.291.446.446,0,0,0,.268.543,12.437,12.437,0,0,0,2.7.742.448.448,0,0,0,.421-.187c.42-.6,1.6-2.259,2.01-2.677.378-.388,1.088-.256,1.409-.169a.451.451,0,0,0,.357-.053.988.988,0,0,0,.348-1.509.449.449,0,0,1,.129-.612.992.992,0,0,0,.357-1.413,1.4,1.4,0,0,0-1.526-.717.466.466,0,0,1-.493-.264.3.3,0,0,0-.234-.179.435.435,0,0,1-.36-.505,1.148,1.148,0,0,0-.662-1.305c-1.223-.647-2.268.456-2.523,1.378s1.111,1.548,1.966,1.642C2006.114,1425.915,2006.468,1426.593,2006.612,1426.948Z" transform="translate(-2001.297 -1422.632)" fill="url(#linear-gradient-49)"/>
              <path id="Trazado_290" data-name="Trazado 290" d="M2100.608,1553.931s.647-1.516,1.338-1.469,1.245.726.4,1.512A1.07,1.07,0,0,1,2100.608,1553.931Z" transform="translate(-2095.831 -1546.215)" fill="url(#linear-gradient-50)"/>
            </g>
            <path id="Trazado_291" data-name="Trazado 291" d="M2101.01,2177.263a.126.126,0,0,0,.12-.1c.26-1.075,2.32-2.285,2.341-2.3a.126.126,0,1,0-.127-.218c-.089.052-2.173,1.276-2.459,2.456a.126.126,0,0,0,.093.152A.12.12,0,0,0,2101.01,2177.263Z" transform="translate(-2072.031 -2138.459)" fill="url(#linear-gradient-51)"/>
            <g id="Grupo_47" data-name="Grupo 47" transform="translate(4.666 11.358)">
              <path id="Trazado_292" data-name="Trazado 292" d="M1726.23,1664.529c4.72.631,7.741-2.39,10-4.229,2.981-2.428,5.349-1.308,5.349-1.308l-3.121,6.2a10.85,10.85,0,0,1-12.814,2.265A5.994,5.994,0,0,1,1726.23,1664.529Z" transform="translate(-1719.501 -1658.734)" fill="url(#linear-gradient-52)"/>
              <path id="Trazado_293" data-name="Trazado 293" d="M1598.217,1723.021l1.575.815a13.666,13.666,0,0,0,5.088,1.887,5.994,5.994,0,0,0-.586,2.925,14.418,14.418,0,0,1-3.252-2.006C1597.47,1724.59,1598.217,1723.021,1598.217,1723.021Z" transform="translate(-1598.152 -1719.928)" fill="url(#linear-gradient-53)"/>
            </g>
            <path id="Trazado_294" data-name="Trazado 294" d="M1501.326,1694.8a1.153,1.153,0,0,1,.661-.748l3.149-1.325s.041-.407-.681-.672a.954.954,0,0,1-.567-1.071s.987.431,2.434,1.117a3.359,3.359,0,0,1,1.552,1.636l-.8,1.086a14.5,14.5,0,0,1-5.915.562Z" transform="translate(-1501.16 -1678.073)" fill="url(#linear-gradient-54)"/>
          </g>
          <g id="Grupo_49" data-name="Grupo 49" transform="translate(33.572 0.865)">
            <path id="Trazado_295" data-name="Trazado 295" d="M2244.76,1455.269c.482-.8,1.323-1.318,1.83-2.1a3.8,3.8,0,0,0,.242-3.378c-.347-.908-.966-1.692-1.32-2.6a4.407,4.407,0,0,1-.268-2.967,3.926,3.926,0,0,1,1.645-2.844,6.18,6.18,0,0,1,4.309-.633,8.016,8.016,0,0,1,4.107,2.008,5.776,5.776,0,0,1,1.819,4.132,9.38,9.38,0,0,0-.014,3.117,2.452,2.452,0,0,0,1.732,1.572,12.648,12.648,0,0,0,2.7-.084,3.939,3.939,0,0,1,2.47.923,3.259,3.259,0,0,1,1.158,2.021,2.437,2.437,0,0,1-.778,2.149c-.414.352-1,.59-1.15,1.111a1.3,1.3,0,0,0,.891,1.406c.56.237,1.19.257,1.759.469a3.26,3.26,0,0,1,1.947,3.266,4.6,4.6,0,0,1-2.083,3.347,7.967,7.967,0,0,1-3.846,1.217,31.79,31.79,0,0,1-4.075-.062,16.766,16.766,0,0,1-4.611-.592,12.579,12.579,0,0,1-3.977-2.484,4.338,4.338,0,0,1-1.4-1.707c-.185-.508-.186-1.072-.4-1.569-.457-1.067-1.724-1.52-2.457-2.419A2.95,2.95,0,0,1,2244.76,1455.269Z" transform="translate(-2242.182 -1440.622)" fill="url(#linear-gradient-55)"/>
            <path id="Trazado_296" data-name="Trazado 296" d="M2408.547,1476.883h.009a1.917,1.917,0,0,0,1.172-3.055,3.824,3.824,0,0,0-2.652-1.105l-1.843-.25a3.939,3.939,0,0,1-2.7-1.111,4.07,4.07,0,0,1-.387-3.023c.014-.124.028-.247.041-.368a7.927,7.927,0,0,0-.481-4,4.521,4.521,0,0,0-2.924-2.655.047.047,0,1,0-.023.091,4.427,4.427,0,0,1,2.861,2.6,7.839,7.839,0,0,1,.474,3.951c-.013.121-.027.244-.041.368a4.134,4.134,0,0,0,.407,3.091,4.011,4.011,0,0,0,2.765,1.147l1.843.25a3.751,3.751,0,0,1,2.59,1.069,1.823,1.823,0,0,1-1.114,2.905.047.047,0,0,0,.009.093Z" transform="translate(-2389.113 -1460.319)" fill="#bdd0fb"/>
            <path id="Trazado_297" data-name="Trazado 297" d="M2453.652,1590.99a.094.094,0,0,0,.064-.025,2.808,2.808,0,0,0,.632-.754,1.01,1.01,0,0,0-.014-1.006,1.333,1.333,0,0,0-.61-.428,7.626,7.626,0,0,0-1.758-.509c-.393-.064-.8-.1-1.184-.13a11.5,11.5,0,0,1-1.518-.195,3.062,3.062,0,0,1-2.124-1.424,4.012,4.012,0,0,1-.088-2.486,5.543,5.543,0,0,0,.074-2.178.094.094,0,0,0-.183.044,5.413,5.413,0,0,1-.076,2.1,4.208,4.208,0,0,0,.105,2.6,3.243,3.243,0,0,0,2.252,1.524,11.646,11.646,0,0,0,1.543.2c.385.032.784.065,1.17.128a7.448,7.448,0,0,1,1.715.5,1.171,1.171,0,0,1,.529.362.825.825,0,0,1,0,.816,2.624,2.624,0,0,1-.593.7.094.094,0,0,0,.064.162Z" transform="translate(-2434.799 -1574.992)" fill="#bdd0fb"/>
            <path id="Trazado_298" data-name="Trazado 298" d="M2215.018,1702.186a6.02,6.02,0,0,1,5.915,1.406,1.513,1.513,0,0,1,.46,1.5c-.617,2.425-2.233,9.587-.666,12.65,0,0-2.626,2.991-5.582.662,0,0-1.4-5.683-3.156-8.16-1.211-1.71,1.783-6.523,2.541-7.686A.91.91,0,0,1,2215.018,1702.186Z" transform="translate(-2211.097 -1689.353)" fill="url(#linear-gradient-56)"/>
            <path id="Trazado_299" data-name="Trazado 299" d="M2295.2,1606.847a30.035,30.035,0,0,1,1.488,5.293,2.789,2.789,0,0,1-2.806-.406,40.987,40.987,0,0,0-.418-4.338Z" transform="translate(-2288.922 -1598.851)" fill="url(#linear-gradient-57)"/>
            <path id="Trazado_300" data-name="Trazado 300" d="M2251.743,1502.145s-3.334,4.828-1.273,6.182,4.435-2.078,4.435-2.078.749-2.625-.093-3.5S2251.743,1502.145,2251.743,1502.145Z" transform="translate(-2247.357 -1499.149)" fill="url(#linear-gradient-58)"/>
            <path id="Trazado_301" data-name="Trazado 301" d="M2287.42,1477.187s-1.561.4-1.769,1.109,2.244,1.331,2.929,1.352l.6,2.852s1.586-2.718.916-4.261S2287.42,1477.187,2287.42,1477.187Z" transform="translate(-2281.473 -1475.356)" fill="url(#linear-gradient-59)"/>
            <path id="Trazado_302" data-name="Trazado 302" d="M2342.1,1563.406s1.3-1.559,1.847-.565-1.167,1.774-1.771,1.292Z" transform="translate(-2335.222 -1556.646)" fill="url(#linear-gradient-60)"/>
            <path id="Trazado_303" data-name="Trazado 303" d="M2203.078,2294.643c.014.259-.407,2.32-.637,3.42a1.8,1.8,0,0,0,.215,1.291l8.8,14.285a1.969,1.969,0,0,1,.234.558,12.375,12.375,0,0,1,.375,3.84l-.428.928,1.91-.466.334-5.156-.548-.322a2.581,2.581,0,0,1-1.063-1.2,73.569,73.569,0,0,1-3.34-8.957c-.606-2.645-3.588-4.753-3.588-4.753l.5-1.232Z" transform="translate(-2202.242 -2253.56)" fill="url(#linear-gradient-61)"/>
            <path id="Trazado_304" data-name="Trazado 304" d="M2387.048,2679.04a11.7,11.7,0,0,1-1.194-2.262c-.132-.637-.489-1.76-1.122-1.41a37.465,37.465,0,0,0-.128,4.32c.123,1.211-1.352,1.2-1.352,1.2a1.377,1.377,0,0,0-.7.366.345.345,0,0,0,.241.577,8.312,8.312,0,0,0,2.052-.149.628.628,0,0,0,.5-.588l.155-3.576,1.333,1.628Z" transform="translate(-2373.638 -2615.908)" fill="url(#linear-gradient-62)"/>
            <path id="Trazado_305" data-name="Trazado 305" d="M2295.315,2333.453s.51,12.9.581,14.729-.194,5.9-2.012,7.141l.809.579a10.685,10.685,0,0,0,1.935-2.515,15.071,15.071,0,0,1,1.393-2.194l-.376-.739a1.638,1.638,0,0,1-.15-1.048c.365-1.928,1.587-8.339,1.926-9.721a6.2,6.2,0,0,0-1.117-5.593C2296.791,2332.3,2295.315,2333.453,2295.315,2333.453Z" transform="translate(-2289.323 -2290.155)" fill="url(#linear-gradient-63)"/>
            <path id="Trazado_306" data-name="Trazado 306" d="M2279.814,2708.626a.113.113,0,0,0,.112-.1,16.659,16.659,0,0,1,.482-2.61c.23-.515.975-2.68-.046-2.846,0,0-2.471,3.739-2.949,4.245a.952.952,0,0,1-1.1.192,1.829,1.829,0,0,0-.821.61.335.335,0,0,0,.273.534l1.705-.011a1.2,1.2,0,0,0,1.113-.774,6.408,6.408,0,0,1,1.379-2.36l-.264,2.995a.114.114,0,0,0,.114.124Z" transform="translate(-2271.754 -2642.342)" fill="url(#linear-gradient-64)"/>
            <path id="Trazado_307" data-name="Trazado 307" d="M2202.681,1997.2a6.052,6.052,0,0,1-.154,3.245l-3.455,12.845a.4.4,0,0,0,.255.478,24.429,24.429,0,0,0,9.629,1.01.558.558,0,0,0,.5-.443c.3-1.463,1.325-6.454,1.536-7.479.8-3.908,1.7-8.122-2.594-10.593A8.756,8.756,0,0,1,2202.681,1997.2Z" transform="translate(-2199.058 -1969.535)" fill="url(#linear-gradient-65)"/>
            <path id="Trazado_308" data-name="Trazado 308" d="M2345.858,1740.906s4.222,3.395,5.332,8.109-6,5.332-6,5.332a2.2,2.2,0,0,0-2.125-.66c-1.142.4-.119-1.883,1.224-1.9s.738,1.056,2.624.165c1.837-.868,2.939-3.479-1.846-7.333a2.138,2.138,0,0,1-.637-.839C2343.471,1741.487,2344.175,1739.962,2345.858,1740.906Z" transform="translate(-2335.665 -1726.191)" fill="url(#linear-gradient-66)"/>
          </g>
          <g id="Grupo_51" data-name="Grupo 51" transform="translate(4.56 31.733)">
            <path id="Trazado_309" data-name="Trazado 309" d="M1634.144,2191.39s2.393,6.449,6.033,5.657c0,0,.375,2.194-.237,2.453,0,0-5.46.158-6-7.341Z" transform="translate(-1632.11 -2186.142)" fill="url(#linear-gradient-67)"/>
            <g id="Grupo_50" data-name="Grupo 50" transform="translate(0 3.625)">
              <path id="Trazado_310" data-name="Trazado 310" d="M1598.088,2160.791c-.01.112.405.189.538-.287-.036-.207-.1-1.113-.26-1.254a16.749,16.749,0,0,0-2.351-1.593.308.308,0,0,0,.052.427l.752.508a3.043,3.043,0,0,0-.206.786.881.881,0,0,0,.222.615c.15.171.351.392.533.56A.869.869,0,0,0,1598.088,2160.791Z" transform="translate(-1595.951 -2157.657)" fill="url(#linear-gradient-68)"/>
              <path id="Trazado_311" data-name="Trazado 311" d="M1620.567,2185.291l-.278-.435-.662-.354c-.1.084-.147.2.021.373a6.584,6.584,0,0,1,.538,1.077Z" transform="translate(-1618.402 -2183.211)" fill="url(#linear-gradient-3)"/>
            </g>
            <path id="Trazado_312" data-name="Trazado 312" d="M1710.759,2084.854s1.156-1.044-.33-2.176c-1.4-1.063-2.417.364-1.954,1.282a.112.112,0,0,1-.075.159c-.122.027-.227.148-.035.577a.112.112,0,0,1-.013.113c-.171.229-.742,1.149.98,1.29a.114.114,0,0,0,.085-.029Z" transform="translate(-1702.726 -2082.301)" fill-rule="evenodd" fill="url(#linear-gradient-70)"/>
            <path id="Trazado_313" data-name="Trazado 313" d="M1885.13,2124.6s.111-1.332.824-1.766,2.1-.8,2.677.645c.276.691.185,1.02.013,1.174a.432.432,0,0,0-.071.545c.117.21.133.469-.221.7a.447.447,0,0,0-.2.288c-.093.483-.587,1.642-3.228.375Z" transform="translate(-1871.027 -2120.517)" fill-rule="evenodd" fill="url(#linear-gradient-71)"/>
            <path id="Trazado_314" data-name="Trazado 314" d="M1732.935,2109.286a1.845,1.845,0,0,1,2.477,1.048.654.654,0,0,0,.252.249,1.946,1.946,0,0,1,.642,3.149.64.64,0,0,0-.117.286c-.045.313-.194,1.005-.641,1.176a.643.643,0,0,0-.32.267,1.606,1.606,0,0,1-2.6.448.641.641,0,0,0-.248-.115l-1.992-.439a.646.646,0,0,0-.32.012.673.673,0,0,1-.918-.439.656.656,0,0,0-.2-.3,1.7,1.7,0,0,1-.507-2.133.65.65,0,0,0,.061-.39,1.5,1.5,0,0,1,.743-1.689.623.623,0,0,0,.3-.276,1.846,1.846,0,0,1,2.8-.906A.641.641,0,0,0,1732.935,2109.286Z" transform="translate(-1721.885 -2107.596)" fill-rule="evenodd" fill="url(#linear-gradient-72)"/>
            <path id="Trazado_315" data-name="Trazado 315" d="M1706.334,2775.346l.29.335-.2.727a.514.514,0,0,1-.4.37,6.264,6.264,0,0,1-2.87.008s-.235-1.574,2.367-1.1Z" transform="translate(-1697.989 -2742.007)" fill-rule="evenodd" fill="url(#linear-gradient-73)"/>
            <path id="Trazado_316" data-name="Trazado 316" d="M1828.522,2792.721l.154.379-.062,1.364a.423.423,0,0,1-.372.385,4.983,4.983,0,0,1-1.088.058.409.409,0,0,1-.377-.565l.459-.984a.6.6,0,0,1,.348-.313Z" transform="translate(-1815.64 -2758.546)" fill-rule="evenodd" fill="url(#linear-gradient-74)"/>
            <path id="Trazado_317" data-name="Trazado 317" d="M1789.8,2238.388l.3,2.934a3.771,3.771,0,0,1-2.646-.07l.284-2.946Z" transform="translate(-1778.238 -2230.802)" fill-rule="evenodd" fill="url(#linear-gradient-75)"/>
            <path id="Trazado_318" data-name="Trazado 318" d="M1832.674,2567.643s-.757,8.441-1.257,11.024a.839.839,0,0,1-.934-.079l-.68-11.265Z" transform="translate(-1818.553 -2543.991)" fill-rule="evenodd" fill="url(#linear-gradient-76)"/>
            <path id="Trazado_319" data-name="Trazado 319" d="M1752.806,2574.921l-2.074,9.453a.938.938,0,0,1-1.3,0l.358-9.938Z" transform="translate(-1742.051 -2550.762)" fill-rule="evenodd" fill="url(#linear-gradient-77)"/>
            <path id="Trazado_320" data-name="Trazado 320" d="M1864.193,2305.6l.519.058c1,1.077,2.848,8.481,3.513,10.055l2.705-.442a.135.135,0,0,1,.152.184c-.12.293-.571,1.14-2.327,1.14-.82,0,.46.637-.03.855,0,0-1.078-.388-1.08-1.071,0,0-3.091-7.04-3.726-7.781S1864.193,2305.6,1864.193,2305.6Z" transform="translate(-1850.813 -2294.855)" fill-rule="evenodd" fill="url(#linear-gradient-78)"/>
            <path id="Trazado_321" data-name="Trazado 321" d="M1757.742,2298.049a10.443,10.443,0,0,0-6.181.036,18.015,18.015,0,0,0-.187,3.835l5.914.214Z" transform="translate(-1743.843 -2287.249)" fill-rule="evenodd" fill="url(#linear-gradient-79)"/>
            <path id="Trazado_322" data-name="Trazado 322" d="M1711.208,2395.078a56.938,56.938,0,0,0-2.17,10.11.377.377,0,0,0,.35.4,8.43,8.43,0,0,1,2.029.439,6.305,6.305,0,0,0,3.936.013,32.149,32.149,0,0,1,4.062-.568.376.376,0,0,0,.336-.441,55.8,55.8,0,0,0-2.835-10.413Z" transform="translate(-1703.597 -2379.596)" fill-rule="evenodd" fill="url(#linear-gradient-80)"/>
            <path id="Trazado_323" data-name="Trazado 323" d="M1752.093,2384.351l.1.952s1.819.007,5.836-.128l.021-.689S1753.6,2384.574,1752.093,2384.351Z" transform="translate(-1744.582 -2369.821)" fill-rule="evenodd" fill="url(#linear-gradient-81)"/>
            <path id="Trazado_324" data-name="Trazado 324" d="M1748.1,2136.651c-.457,1.764-.323,3.792,1.752,4.247,1.436.315,2.946-1.149,3.4-2.913s-.325-3.108-1.749-3.476A2.756,2.756,0,0,0,1748.1,2136.651Z" transform="translate(-1740.578 -2131.91)" fill-rule="evenodd" fill="url(#linear-gradient-82)"/>
            <path id="Trazado_325" data-name="Trazado 325" d="M1740.031,2176.329s-.068-1.067-.6-.738.206,1.608.535,1.683S1740.031,2176.329,1740.031,2176.329Z" transform="translate(-1732.351 -2171.044)" fill-rule="evenodd" fill="url(#linear-gradient-83)"/>
            <path id="Trazado_326" data-name="Trazado 326" d="M1841.023,2207.13s.159-.814.736-.437-.524,1.706-1.2,1.41Z" transform="translate(-1828.79 -2200.614)" fill-rule="evenodd" fill="url(#linear-gradient-84)"/>
            <path id="Trazado_327" data-name="Trazado 327" d="M1756.043,2131.43s-1.651,1.787-2.508-1.921c0,0-.856,1.108-1.246.128,0,0-1.7.584-1.892-.133s2.3-2.66,4.307-1.265A2.8,2.8,0,0,1,1756.043,2131.43Z" transform="translate(-1742.958 -2125.561)" fill-rule="evenodd" fill="url(#linear-gradient-85)"/>
          </g>
          <g id="Grupo_54" data-name="Grupo 54" transform="translate(39.866 28.707)">
            <path id="Trazado_328" data-name="Trazado 328" d="M2359.312,2054.474s4.756,6.81,8.8,7.736c0,0-.322,1.945-1.027,2.243,0,0-3.875-.926-8.013-9.093Z" transform="translate(-2357.67 -2052.786)" fill="url(#linear-gradient-86)"/>
            <g id="Grupo_52" data-name="Grupo 52">
              <path id="Trazado_329" data-name="Trazado 329" d="M2332.358,2022.994c-.012.129.466.218.619-.331-.042-.238-.116-1.281-.3-1.443a19.273,19.273,0,0,0-2.706-1.833.355.355,0,0,0,.06.491l.865.584a3.509,3.509,0,0,0-.237.9,1.014,1.014,0,0,0,.256.708c.172.2.4.451.613.644A1,1,0,0,0,2332.358,2022.994Z" transform="translate(-2329.898 -2019.387)" fill="url(#linear-gradient-87)"/>
              <path id="Trazado_330" data-name="Trazado 330" d="M2358.233,2051.195l-.32-.5-.762-.407c-.119.1-.169.226.025.429a7.572,7.572,0,0,1,.619,1.24Z" transform="translate(-2355.741 -2048.801)" fill="url(#linear-gradient-3)"/>
            </g>
            <path id="Trazado_331" data-name="Trazado 331" d="M2780.061,2609.567a5,5,0,0,1,.862-.641.183.183,0,0,1,.233.049,10.109,10.109,0,0,1,1.649,2.875.187.187,0,0,1-.1.208c-.279.146-1.016.3-2.066-1.158l-.631-.891A.334.334,0,0,1,2780.061,2609.567Z" transform="translate(-2758.299 -2580.545)" fill-rule="evenodd" fill="url(#linear-gradient-89)"/>
            <path id="Trazado_332" data-name="Trazado 332" d="M2649.232,2554.808s.353,4.763,2.293,6.351c1.7,1.39,4.345-1.141,4.977-1.793a.4.4,0,0,0,.11-.36,1,1,0,0,0-.482-.709.5.5,0,0,0-.583.064c-.527.487-1.907,1.669-2.611,1.387-.882-.353-1.412-4.94-1.412-4.94Z" transform="translate(-2633.87 -2529.052)" fill-rule="evenodd" fill="url(#linear-gradient-90)"/>
            <g id="Grupo_53" data-name="Grupo 53" transform="translate(18.592 0.548)">
              <path id="Trazado_333" data-name="Trazado 333" d="M2717.735,2088.333s2.646-1.235,4.1-8l-.724-.371s-2.809,5.528-4.259,6.788S2717.735,2088.333,2717.735,2088.333Z" transform="translate(-2716.378 -2077.593)" fill-rule="evenodd" fill="url(#linear-gradient-91)"/>
              <path id="Trazado_334" data-name="Trazado 334" d="M2813.969,2033.969l.56-.444a5.5,5.5,0,0,0,1.032-1.372c.268-.63-.519-1.2-.816-1.332s-.46.148-.4.781a2.813,2.813,0,0,0-.579,1.933Z" transform="translate(-2809.072 -2030.788)" fill-rule="evenodd" fill="url(#linear-gradient-92)"/>
            </g>
            <path id="Trazado_335" data-name="Trazado 335" d="M2562.588,2809.5a5.882,5.882,0,0,1,.2,1.357.185.185,0,0,1-.159.178,10.107,10.107,0,0,1-3.314,0,.183.183,0,0,1-.132-.18c.009-.31.227-1.038,2.032-1.224Z" transform="translate(-2548.15 -2771.487)" fill-rule="evenodd" fill="url(#linear-gradient-93)"/>
            <path id="Trazado_336" data-name="Trazado 336" d="M2565.086,2561.3c-.222.145,1.454,11.912,1.86,12a.927.927,0,0,0,1.181-.06,71.376,71.376,0,0,1-.443-11.7Z" transform="translate(-2553.753 -2535.234)" fill-rule="evenodd" fill="url(#linear-gradient-94)"/>
            <path id="Trazado_337" data-name="Trazado 337" d="M2553.769,2412.834s-5.465.25-6.766.707a59.179,59.179,0,0,0,.695,7.174.273.273,0,0,0,.206.214,5.419,5.419,0,0,0,2.632-.194.273.273,0,0,0,.2-.282l-.144-1.77a.216.216,0,0,1,.2-.23l.146-.022a.216.216,0,0,1,.23.213l.276,1.795a.273.273,0,0,0,.185.256,4.767,4.767,0,0,0,2.889-.031.272.272,0,0,0,.193-.258A38.781,38.781,0,0,0,2553.769,2412.834Z" transform="translate(-2536.559 -2393.907)" fill-rule="evenodd" fill="url(#linear-gradient-95)"/>
            <path id="Trazado_338" data-name="Trazado 338" d="M2645.079,2418.095s.691,1.921,2.358,2.054l-.369-2.19A12.571,12.571,0,0,0,2645.079,2418.095Z" transform="translate(-2629.917 -2398.785)" fill-rule="evenodd" fill="url(#linear-gradient-96)"/>
            <path id="Trazado_339" data-name="Trazado 339" d="M2486.072,2196.478a10.118,10.118,0,0,1-5.469,1.411,8.2,8.2,0,0,1-4.866-1.5.894.894,0,0,0-1.066-.084,7.589,7.589,0,0,0-1.362,1.134.41.41,0,0,0-.057.5,7.079,7.079,0,0,0,2.329,2.479,1.612,1.612,0,0,1,.417,1.125l-.152,5.781a.326.326,0,0,0,.265.33c1.1.208,5.257.932,7.844.476v-6.236a1.272,1.272,0,0,1,.662-1.11,6.831,6.831,0,0,0,2.161-2Z" transform="translate(-2466.3 -2187.658)" fill-rule="evenodd" fill="url(#linear-gradient-97)"/>
            <path id="Trazado_340" data-name="Trazado 340" d="M2539.149,2141.352s.21-.593-.326-.7-.025,1.47-.025,1.47Z" transform="translate(-2528.54 -2134.815)" fill-rule="evenodd" fill="url(#linear-gradient-98)"/>
            <path id="Trazado_341" data-name="Trazado 341" d="M2598.545,2188.755l.212,2.325a2.463,2.463,0,0,1-2.283.09l.188-2.031Z" transform="translate(-2583.65 -2180.607)" fill-rule="evenodd" fill="url(#linear-gradient-99)"/>
            <path id="Trazado_342" data-name="Trazado 342" d="M2527.837,2059.992a1.7,1.7,0,0,1-.57-.572,1.317,1.317,0,0,1-.225-1.126c.109-.243.37-.428.371-.7,0-.2-.145-.362-.193-.552a.77.77,0,0,1,.366-.789,1.93,1.93,0,0,1,.885-.25,1,1,0,0,0,.417-.1,1.6,1.6,0,0,0,.344-.363,1.21,1.21,0,0,1,1.744.013c.222.257.342.62.645.774a2.08,2.08,0,0,0,.542.126,2.271,2.271,0,0,1,1.1.643,2.893,2.893,0,0,1,.949,1.557,5.678,5.678,0,0,1,.063,1.037,2.894,2.894,0,0,1-.2,1.3c-.193.39-.556.68-.722,1.082a2.477,2.477,0,0,1-.162.391.365.365,0,0,1-.351.19c-.167-.032-.251-.212-.341-.356-.443-.715-1.921-1.042-2.66-1.4A16.177,16.177,0,0,1,2527.837,2059.992Z" transform="translate(-2517.501 -2053.46)" fill-rule="evenodd" fill="url(#linear-gradient-100)"/>
            <path id="Trazado_343" data-name="Trazado 343" d="M2543.936,2112.161s-2.56,3.858.085,5.039a2.607,2.607,0,0,0,3.548-1.446s1.1-1.137.729-2.013S2544.56,2111.682,2543.936,2112.161Z" transform="translate(-2532.58 -2107.594)" fill-rule="evenodd" fill="url(#linear-gradient-101)"/>
            <path id="Trazado_344" data-name="Trazado 344" d="M2556.721,2104.225a.684.684,0,0,1-.407-.3,4.662,4.662,0,0,1-.346-.874,1.722,1.722,0,0,0-1.128-.936,5.676,5.676,0,0,0-1.364-.088c-.622-.013-2.026-.465-.887-1.075.819-.439,1.761-.027,2.573.2a4.309,4.309,0,0,1,2.187,1.312,1.3,1.3,0,0,1,.274,1.03A.863.863,0,0,1,2556.721,2104.225Z" transform="translate(-2541.465 -2096.846)" fill-rule="evenodd" fill="url(#linear-gradient-102)"/>
            <path id="Trazado_345" data-name="Trazado 345" d="M2634.661,2169.677l.445-1.224s.86-.4.747.271A1.216,1.216,0,0,1,2634.661,2169.677Z" transform="translate(-2620 -2161.172)" fill-rule="evenodd" fill="url(#linear-gradient-103)"/>
          </g>
        </g>
      </g>
    </g>
  </g>
</svg>
