<svg xmlns="http://www.w3.org/2000/svg" width="133.889" height="80.728" viewBox="0 0 133.889 80.728"><g transform="translate(-151 -358)"><g transform="translate(151 358)"><g transform="translate(0 44.714)"><path d="M41.655,69.453c-.492.073-.947.127-1.421.163v8.856c.474.036.929.09,1.421.164v1.785h-5.3V78.636c.474-.074.911-.11,1.386-.164V69.616c-.474-.036-.966-.09-1.421-.163V67.667h5.338Z" transform="translate(-36.317 -67.212)" fill="#fff"/><path d="M55.561,69.453c-.491.073-.965.127-1.439.163V80.421H51.516l-5.539-8.637v6.724c.383.037.747.074,1.148.128v1.785H42.333V78.636c.493-.074.966-.128,1.422-.164V69.635c-.347-.037-.821-.091-1.458-.182V67.667h3.809l5.812,8.873V69.58c-.383-.037-.784-.073-1.2-.127V67.667h4.846Z" transform="translate(-36.011 -67.212)" fill="#fff"/><path d="M72.247,69.453c-.656.09-1.13.145-1.476.163v8.856c.473.036.929.09,1.421.164v1.785H67.2V78.636c.4-.055.784-.091,1.148-.128v-7.78l-3.7,9.693H63.026l-3.262-9.693v7.744c.4.054.82.09,1.257.164v1.785H55.975V78.636c.51-.074.966-.128,1.421-.164V69.635c-.328-.019-.783-.091-1.458-.182V67.667h4.7l3.225,8.946H63.9l3.516-8.946h4.829Z" transform="translate(-35.312 -67.212)" fill="#fff"/><path d="M95.251,71.365a2.4,2.4,0,0,1-1.567,2.515c1.13.292,1.8,1.185,1.8,2.789v.273c0,2.66-1.22,3.462-4.172,3.48H84.61V78.636c.619-.091,1.075-.128,1.421-.164V69.616c-.346-.036-.838-.073-1.458-.163V67.667h6.469c3.006,0,4.209,1.056,4.209,3.516Zm-4.3,1.622c1.312,0,1.859-.328,1.859-1.421v-.254c0-1.112-.328-1.585-1.695-1.585H88.546v3.261ZM92.936,76.3c0-1.093-.693-1.4-1.986-1.4H88.546v3.462h2.405c1.33,0,1.986-.582,1.986-1.767Z" transform="translate(-33.846 -67.212)" fill="#fff"/><path d="M101.491,69.453c-.492.073-.947.127-1.421.163v8.856c.474.036.929.09,1.421.164v1.785h-5.3V78.636c.474-.074.911-.11,1.384-.164V69.616c-.473-.036-.966-.09-1.421-.163V67.667h5.339Z" transform="translate(-33.252 -67.212)" fill="#fff"/><path d="M102.169,80.421V78.636c.638-.091,1.075-.128,1.384-.164V69.616c-.492-.054-.965-.09-1.421-.163V67.667H107.8v1.786a13.12,13.12,0,0,1-1.749.182v8.783h4.373l.291-1.987h1.677v3.99Z" transform="translate(-32.946 -67.212)" fill="#fff"/><path d="M118.322,69.453c-.492.073-.948.127-1.421.163v8.856c.473.036.929.09,1.421.164v1.785h-5.3V78.636c.473-.074.91-.11,1.384-.164V69.616c-.474-.036-.966-.09-1.421-.163V67.667h5.339Z" transform="translate(-32.39 -67.212)" fill="#fff"/><path d="M131.137,78.472a14.97,14.97,0,0,1,1.621.164v1.785h-5.666V78.636c.418-.074.82-.11,1.238-.146l-.6-1.822H123.52l-.492,1.8c.419.054.547.09.984.164v1.785h-5.084V78.636a14.136,14.136,0,0,1,1.549-.164L123.41,69.6c-.328-.036-.728-.073-1.348-.145V67.667h5.43Zm-7.125-3.936h3.17l-1.566-4.775" transform="translate(-32.086 -67.212)" fill="#fff"/><path d="M139.431,67.667c2.9,0,4.318,1.093,4.318,3.662v.947a3.456,3.456,0,0,1-2.04,3.28,20.587,20.587,0,0,1,1.548,2.916c.328.054.784.09,1.349.164v1.785h-4.045V78.49a12.105,12.105,0,0,0-1.093-2.515H136.7v2.569c.365.018.73.055,1.112.091v1.785h-5.048V78.636c.492-.074.948-.128,1.421-.164V69.616c-.346-.036-.838-.073-1.457-.163V67.667Zm-.018,6.1c1.294,0,1.968-.62,1.968-1.641v-.637c0-1.13-.656-1.767-1.968-1.767H136.7v4.045Z" transform="translate(-31.379 -67.212)" fill="#fff"/><path d="M149.921,69.453c-.492.073-.948.127-1.421.163v8.856c.473.036.929.09,1.421.164v1.785h-5.3V78.636c.473-.074.91-.11,1.384-.164V69.616c-.474-.036-.966-.09-1.421-.163V67.667h5.339Z" transform="translate(-30.772 -67.212)" fill="#fff"/><path d="M162.736,78.472a14.97,14.97,0,0,1,1.621.164v1.785h-5.666V78.636c.418-.074.82-.11,1.238-.146l-.6-1.822h-4.209l-.492,1.8c.419.054.547.09.984.164v1.785h-5.084V78.636a14.137,14.137,0,0,1,1.55-.164l2.933-8.874c-.328-.036-.729-.073-1.348-.145V67.667h5.43Zm-5.576-8.71-1.549,4.775h3.17l-1.566-4.775Z" transform="translate(-30.468 -67.212)" fill="#fff"/><g transform="translate(37.879)"><path d="M77.527,80.707l-.463-.013a7.251,7.251,0,0,1-1.306-.188,4.2,4.2,0,0,1-3.227-3.322,6.475,6.475,0,0,1-.136-.768c-.017-.26-.039-.536-.041-.8-.009-.52,0-1.059.005-1.612s.026-1.109.068-1.711l.036-.437.069-.465a6.152,6.152,0,0,1,.231-.908,4.761,4.761,0,0,1,.944-1.657,4.212,4.212,0,0,1,1.593-1.1,6.285,6.285,0,0,1,1.911-.4c.654-.048,1.288-.059,1.934-.09a6.507,6.507,0,0,1,2,.193,4.244,4.244,0,0,1,1.8,1.027,4.427,4.427,0,0,1,1.07,1.75,7.071,7.071,0,0,1,.344,1.926c.034.634.019,1.2.024,1.792s0,1.148-.012,1.7c-.007.312-.016.548-.043.843l-.052.434c-.023.141-.058.276-.086.413a4.938,4.938,0,0,1-.614,1.505,4.058,4.058,0,0,1-1.031,1.091,4.4,4.4,0,0,1-1.189.584,6.554,6.554,0,0,1-2.06.241c-.565-.02-1.006-.027-1.308-.03Zm0-.09.461-.006c.3-.005.744,0,1.306-.036a5.051,5.051,0,0,0,1.918-.448,3.5,3.5,0,0,0,1.706-1.672,5.124,5.124,0,0,0,.411-1.311,6.99,6.99,0,0,0,.087-.721c.018-.24.02-.551.018-.791-.024-1.1-.005-2.287-.006-3.462a4.637,4.637,0,0,0-1.052-3.158,3.524,3.524,0,0,0-1.435-.937,5.924,5.924,0,0,0-1.8-.342c-.64-.021-1.294-.064-1.921-.067a5.159,5.159,0,0,0-1.824.322,3.406,3.406,0,0,0-1.449,1.05,3.834,3.834,0,0,0-.723,1.581,14.475,14.475,0,0,0-.083,3.389c.006.553.015,1.091.005,1.612a8.924,8.924,0,0,0,.079,1.429,4.2,4.2,0,0,0,.941,2.252A3.616,3.616,0,0,0,75.8,80.355a5.043,5.043,0,0,0,1.266.241Z" transform="translate(-72.351 -67.234)" fill="#fff"/><g transform="translate(2.248 2.2)"><path d="M74.49,72.889v.193h3.26V69.327l-.231.048A3.77,3.77,0,0,0,74.49,72.889Z" transform="translate(-74.489 -69.327)" fill="#fff"/><rect width="3.259" height="3.259" transform="translate(0.001 4.714)" fill="#fff"/><path d="M81.746,72.889a3.77,3.77,0,0,0-3.028-3.513l-.231-.048v3.755h3.261Z" transform="translate(-74.284 -69.327)" fill="#fff"/><rect width="3.259" height="3.259" transform="translate(4.203 4.714)" fill="#fff"/></g></g></g><g transform="translate(1.472 0)"><path d="M138.2,47.308l-6.81-4.268V29.33H118.222v6.992L101.333,24.7,62.743,47.308h8.081l30.419-16.344,20.7,12.8V32.689h.653l2.286,6.053,2.833-6.053h.675V47.308Z" transform="translate(-36.435 -24.699)" fill="#fff"/><path d="M168.663,51.614c-4.393,2.333-16.412,2.889-17.171,2.922q-2.387-.3-4.652-.748c-1.194-.235-2.363-.5-3.51-.787-10.548-2.634-19.14-7.179-27.092-9.668-1.383-.433-2.749-.8-4.1-1.089a30.9,30.9,0,0,0-3.283-.531,13.717,13.717,0,0,0-5.648.808,13.717,13.717,0,0,0-5.648-.808,31.165,31.165,0,0,0-3.408.557c-1.35.291-2.712.663-4.092,1.1-7.958,2.509-16.563,7.054-27.128,9.669q-1.72.426-3.51.779-2.2.429-4.519.72c-.526-.022-12.744-.566-17.183-2.922,0,0,18.24,12.107,35.157,13.056l-.005,0c14.006,1.325,23.089-4.431,30.337-8.372,7.247,3.941,16.327,9.694,30.332,8.372C150.445,63.7,168.663,51.614,168.663,51.614Z" transform="translate(-37.717 -23.83)" fill="#fff"/></g><path d="M115.838,100.442v0h0Z" transform="translate(-32.244 -20.82)" fill="none"/><path d="M116.641,99.006a2.526,2.526,0,0,0-.233.36c-.025.046-.047.089-.067.13a4.266,4.266,0,0,0,.32-.31l.418-.445c.132-.14.243-.264.332-.37s.135-.162.151-.186l.218-.312c-.055.045-.108.089-.161.135A8.848,8.848,0,0,0,116.641,99.006Z" transform="translate(-32.219 -20.951)" fill="none"/><path d="M126.611,92.253c.1-.143.176-.266.234-.368a.917.917,0,0,0,.144-.386.113.113,0,0,0-.008-.054s-.018,0-.053,0a.509.509,0,0,0-.121.017,1.784,1.784,0,0,0-.389.147,5.113,5.113,0,0,0-1.349.946,9.788,9.788,0,0,0-1.167,1.4,3.247,3.247,0,0,0-.374.705.58.58,0,0,0-.039.166.59.59,0,0,0,.222-.036,2.176,2.176,0,0,0,.449-.217,6.28,6.28,0,0,0,.552-.381c.167-.127.338-.268.508-.42a2.132,2.132,0,0,1,0-.762,1.915,1.915,0,0,1,.25-.682.736.736,0,0,1,.463-.36c.211-.043.4.069.553.328a.776.776,0,0,1,.038.085C126.555,92.335,126.584,92.293,126.611,92.253Z" transform="translate(-31.852 -21.28)" fill="#fff"/><path d="M89.529,92.253c.1-.143.176-.266.235-.368a.924.924,0,0,0,.143-.386.128.128,0,0,0-.007-.054s-.019,0-.053,0a.524.524,0,0,0-.122.017,1.8,1.8,0,0,0-.388.147,5.1,5.1,0,0,0-1.35.946,9.853,9.853,0,0,0-1.166,1.4,3.225,3.225,0,0,0-.374.705.512.512,0,0,0-.039.166.6.6,0,0,0,.222-.036,2.2,2.2,0,0,0,.449-.217,6.589,6.589,0,0,0,.552-.381c.167-.127.337-.268.508-.42a2.133,2.133,0,0,1,0-.762,1.923,1.923,0,0,1,.249-.682.74.74,0,0,1,.464-.36c.211-.044.4.069.553.328q.021.041.038.085Z" transform="translate(-33.751 -21.28)" fill="#fff"/><path d="M88.282,89.9a6.191,6.191,0,0,0,.371-2.172,4.925,4.925,0,0,0-.6-2.231,5.088,5.088,0,0,0-1.189-1.507,6.458,6.458,0,0,0-1.629-1.017,9.215,9.215,0,0,0-1.943-.6,13.907,13.907,0,0,0-2.12-.238,19.012,19.012,0,0,0-2.184.045c-.727.057-1.444.146-2.129.264s-1.333.26-1.938.423a16.718,16.718,0,0,0-1.64.521c-.423.164-.88.36-1.358.58s-.957.471-1.433.746-.947.578-1.408.905a13.728,13.728,0,0,0-1.292,1.041,9.683,9.683,0,0,0-1.08,1.153,5.749,5.749,0,0,0-.763,1.255,3.415,3.415,0,0,0-.284.991,3.267,3.267,0,0,0,.028.993,3.383,3.383,0,0,0,.319.928,3.243,3.243,0,0,0,.591.806l.037.037,1.855.481-.566-.522a3.483,3.483,0,0,1-1.156-1.918,2.786,2.786,0,0,1,.545-2.079,7.554,7.554,0,0,1,1.249-1.408,14.017,14.017,0,0,1,1.638-1.25,17.351,17.351,0,0,1,1.789-1.027,17.873,17.873,0,0,1,1.712-.751,19.632,19.632,0,0,1,2.076-.614,21.041,21.041,0,0,1,2.525-.447,20.148,20.148,0,0,1,2.686-.129,11.653,11.653,0,0,1,2.551.322,7.131,7.131,0,0,1,2.138.9,4.061,4.061,0,0,1,1.441,1.593,3.948,3.948,0,0,1,.475,1.77,5.227,5.227,0,0,1-.284,1.764,7.5,7.5,0,0,1-.841,1.7,13.923,13.923,0,0,1-1.2,1.573,17.247,17.247,0,0,1-1.357,1.37c-.459.413-.9.782-1.3,1.1-.32.25-.752.56-1.284.921s-1.135.731-1.783,1.1-1.342.718-2.051,1.045a14.309,14.309,0,0,1-2.068.774,6.053,6.053,0,0,1-1.885.2,2.914,2.914,0,0,1-.753-.133.618.618,0,0,1-.357-.239.376.376,0,0,1,.049-.347,2.452,2.452,0,0,1,.66-.689,4.33,4.33,0,0,1,.637-.4c.259-.139.546-.278.876-.426s.658-.282,1-.414.692-.258,1.025-.369.652-.217.951-.313.552-.172.76-.233l.92-.27-2.5-.282-.038.012c-.349.105-.741.235-1.166.389s-.854.324-1.287.514c-.141.062-.276.129-.413.2l-.321-.351a2.868,2.868,0,0,1-.669-1.087,1.923,1.923,0,0,1-.055-.956,2.166,2.166,0,0,1,.384-.895c.2-.278.429-.551.666-.815a11.549,11.549,0,0,1,1.164-1.1c.423-.35.866-.687,1.32-1s.907-.612,1.361-.889.895-.533,1.307-.76.8-.436,1.152-.618.655-.349.891-.488l.631-.373-2.24.04-.445.222c-.1.049-.191.1-.283.145s-.2.107-.314.173-.27.162-.467.286q-.443.289-1.128.718c-.464.291-.95.623-1.449.987s-1,.764-1.495,1.186a9.652,9.652,0,0,0-1.293,1.333,5.441,5.441,0,0,0-.623.962,3.24,3.24,0,0,0-.319,1,2.493,2.493,0,0,0,.063,1,2.454,2.454,0,0,0,.545.966l.042.047,1.458.323c-.245.121-.485.247-.714.381a6.137,6.137,0,0,0-1.021.732,2.516,2.516,0,0,0-.572.737,1.5,1.5,0,0,0-.162.75,1.291,1.291,0,0,0,.237.673,1.58,1.58,0,0,0,.58.493,3.2,3.2,0,0,0,1.462.324l.135,0a8.106,8.106,0,0,0,1.867-.294,14.539,14.539,0,0,0,1.98-.7c.66-.287,1.3-.6,1.909-.922s1.162-.651,1.666-.976.923-.608,1.247-.844c.5-.377,1.044-.813,1.616-1.293a20.814,20.814,0,0,0,1.688-1.6,15.469,15.469,0,0,0,1.5-1.846A9.025,9.025,0,0,0,88.282,89.9Z" transform="translate(-34.815 -21.757)" fill="#fff"/><path d="M97.442,93.231q-.155.115-.52.36t-.759.51q-.383.26-.681.448c-.08.05-.139.086-.181.111a2.337,2.337,0,0,1,.193-.383c.146-.238.32-.5.515-.765l.6-.83a6.416,6.416,0,0,0,.529-.851,1.117,1.117,0,0,0,.077-.627.509.509,0,0,0-.3-.382.8.8,0,0,0-.473-.023,1.654,1.654,0,0,0-.5.2,6.34,6.34,0,0,0-.764.573q-.44.375-.912.809-.41.374-.794.74c.053-.1.1-.2.155-.3l.327-.628c.111-.215.242-.453.393-.721l.13-.262a2.187,2.187,0,0,0,.115-.269.418.418,0,0,0-.043-.414.457.457,0,0,0-.361-.165.752.752,0,0,0-.354.1,1.171,1.171,0,0,0-.353.31c-.264.3-.613.677-1.067,1.158a12.324,12.324,0,0,1-1.76,1.48c-.1.058-.208.123-.317.2-.224.162-.465.32-.7.461a.613.613,0,0,1-.167.062.248.248,0,0,1-.005-.039,1.433,1.433,0,0,1,0-.149,5.339,5.339,0,0,0,.712-.813,6.933,6.933,0,0,0,.471-.706,3.065,3.065,0,0,0,.313-.712,1.1,1.1,0,0,0,0-.65.72.72,0,0,0-.539-.445,1.676,1.676,0,0,0-.762,0,3.6,3.6,0,0,0-.822.289,5.844,5.844,0,0,0-.844.507,7.238,7.238,0,0,0-.8.665,8.164,8.164,0,0,0-.809.91,6.07,6.07,0,0,0-.6.945,2.924,2.924,0,0,0-.293.884,1.014,1.014,0,0,0,.151.751.719.719,0,0,0,.7.311,2.4,2.4,0,0,0,.8-.241,5.681,5.681,0,0,0,.825-.494c.2-.14.385-.279.558-.412a1.155,1.155,0,0,0,.374.383.811.811,0,0,0,.807-.047,6.456,6.456,0,0,0,.849-.518c.185-.136.341-.247.481-.345.163-.116.32-.218.461-.31.182-.118.339-.221.46-.317.1-.081.2-.155.279-.222l-.312.565c-.152.274-.3.546-.445.813s-.274.527-.379.765l-.017.078a.451.451,0,0,0,.224.4.463.463,0,0,0,.243.07.449.449,0,0,0,.2-.049l.032-.02c.351-.271.726-.592,1.117-.952s.777-.724,1.166-1.1.765-.732,1.134-1.075l.109-.1c-.179.239-.353.49-.52.75a6.5,6.5,0,0,0-.506.943,1.712,1.712,0,0,0-.158.915l.009.037a.615.615,0,0,0,.465.4,1.067,1.067,0,0,0,.537.015,3.038,3.038,0,0,0,.63-.321q.356-.224.725-.481c.245-.17.481-.34.711-.506l.625-.458-.116-1.022ZM88.9,92.02a.74.74,0,0,0-.464.36,1.923,1.923,0,0,0-.249.682,2.133,2.133,0,0,0,0,.762c-.17.152-.341.293-.508.42a6.593,6.593,0,0,1-.552.381,2.2,2.2,0,0,1-.449.217.6.6,0,0,1-.222.036.512.512,0,0,1,.039-.166,3.226,3.226,0,0,1,.374-.705,9.854,9.854,0,0,1,1.166-1.4,5.1,5.1,0,0,1,1.35-.946,1.8,1.8,0,0,1,.388-.147A.524.524,0,0,1,89.9,91.5c.034,0,.052.006.053,0a.128.128,0,0,1,.007.054.924.924,0,0,1-.143.386c-.06.1-.138.225-.235.368l-.085.124q-.017-.044-.038-.085C89.306,92.089,89.112,91.976,88.9,92.02Z" transform="translate(-33.799 -21.336)" fill="#fff"/><path d="M115.36,90.711a5.664,5.664,0,0,0,.174-1.732,4.594,4.594,0,0,0-.433-1.631,2.305,2.305,0,0,0-.772-.982,3.123,3.123,0,0,0-1.079-.494,4.169,4.169,0,0,0-1.2-.117,5.333,5.333,0,0,0-1.179.183,4.928,4.928,0,0,0-1.007.394,2.114,2.114,0,0,0-.7.558l-.2.26,1.174.173.052-.022a7.371,7.371,0,0,1,1.082-.37,4.025,4.025,0,0,1,1.128-.13,2.433,2.433,0,0,1,1.011.254,1.855,1.855,0,0,1,.767.778,2.6,2.6,0,0,1,.334,1.266,4.66,4.66,0,0,1-.169,1.319,8.313,8.313,0,0,1-1.017,2.26,12.98,12.98,0,0,1-1.674,2.118,13.919,13.919,0,0,1-2.075,1.753,9.87,9.87,0,0,1-2.211,1.161,6.825,6.825,0,0,1-1.911.419,4.755,4.755,0,0,1-1.627-.168,3.734,3.734,0,0,1-1.292-.671,3.643,3.643,0,0,1-.906-1.088,3.978,3.978,0,0,1-.5-1.6,5.893,5.893,0,0,1,.108-1.727,7.869,7.869,0,0,1,.593-1.741,12.3,12.3,0,0,1,.958-1.665,13.62,13.62,0,0,1,1.179-1.489,12.237,12.237,0,0,1,1.263-1.2,9.445,9.445,0,0,1,1.454-.979,12.538,12.538,0,0,1,1.763-.812,10.346,10.346,0,0,1,1.853-.5,6.069,6.069,0,0,1,1.728-.064,3.3,3.3,0,0,1,1.4.48,2.334,2.334,0,0,1,.9,1.131l.03.076,1.3.543-.089-.371a3.614,3.614,0,0,0-2.776-2.867,6.088,6.088,0,0,0-2.112-.108,10.685,10.685,0,0,0-2.216.5,13.3,13.3,0,0,0-2.082.909,10.014,10.014,0,0,0-1.7,1.138,15.3,15.3,0,0,0-1.443,1.39,14.975,14.975,0,0,0-1.323,1.675,13.317,13.317,0,0,0-1.067,1.876,9.065,9.065,0,0,0-.668,1.983,6.606,6.606,0,0,0-.115,1.986,4.8,4.8,0,0,0,.6,1.892,4.69,4.69,0,0,0,1.145,1.369,4.894,4.894,0,0,0,1.618.87,5.916,5.916,0,0,0,1.816.267l.182,0a7.452,7.452,0,0,0,2.293-.455,9.51,9.51,0,0,0,1.635-.754,13.292,13.292,0,0,0,1.585-1.081,15.672,15.672,0,0,0,1.469-1.331,14.247,14.247,0,0,0,1.278-1.51A12.429,12.429,0,0,0,114.7,92.4,8.58,8.58,0,0,0,115.36,90.711Z" transform="translate(-33.053 -21.699)" fill="#fff"/><path d="M111.165,99.472a6.3,6.3,0,0,1-1.426.3,4.617,4.617,0,0,1-1.387-.089c-.488-.1-.982-.227-1.469-.368l-1.5-.432a8.178,8.178,0,0,0-1.506-.287,4.917,4.917,0,0,0-1.733.143,3.821,3.821,0,0,0-1.66,1.022l-.036.035-.556,1.863.569-.622a4.192,4.192,0,0,1,1.589-1.165,3.971,3.971,0,0,1,1.616-.237,5.99,5.99,0,0,1,1.387.248q.725.214,1.476.443c.5.153,1.022.284,1.547.39a5.97,5.97,0,0,0,1.638.1,5.293,5.293,0,0,0,1.222-.231A5.756,5.756,0,0,0,112.2,100l.038-.022,1.191-1.788-.808.543A6.164,6.164,0,0,1,111.165,99.472Z" transform="translate(-33.061 -20.935)" fill="#fff"/><path d="M121.8,89.969a.911.911,0,0,0,.657-.27.885.885,0,0,0,.281-.655.935.935,0,0,0-1.593-.657.918.918,0,0,0-.27.657.928.928,0,0,0,.925.925Z" transform="translate(-31.986 -21.451)" fill="#fff"/><path d="M124.213,89.969a.913.913,0,0,0,.658-.27.885.885,0,0,0,.281-.655.935.935,0,0,0-1.594-.657.922.922,0,0,0-.27.657.93.93,0,0,0,.925.925Z" transform="translate(-31.863 -21.451)" fill="#fff"/><path d="M135.252,93.34l-.239.176c-.2.146-.411.3-.636.453s-.448.3-.673.447-.444.269-.664.384a5.9,5.9,0,0,1-.62.281,2.3,2.3,0,0,1-.494.09.316.316,0,0,1-.2-.028.348.348,0,0,1-.055-.278,1.732,1.732,0,0,1,.132-.463c.22-.107.463-.234.723-.378.289-.161.573-.333.843-.512s.529-.365.764-.552a3.814,3.814,0,0,0,.573-.54,1.132,1.132,0,0,0,.238-.528,1.014,1.014,0,0,0-.051-.54.8.8,0,0,0-.367-.4.944.944,0,0,0-.649-.079,2.627,2.627,0,0,0-1.066.507,5.331,5.331,0,0,0-.895.875,6.975,6.975,0,0,0-.685,1.015c-.094.169-.177.333-.246.489l-.077.055q-.281.2-.594.424t-.608.414c-.2.131-.358.227-.5.3a1.681,1.681,0,0,1-.339.187,2.8,2.8,0,0,1,.2-.653,16.273,16.273,0,0,1,.776-1.512c.268-.462.566-.947.882-1.441q.654-.992,1.268-1.934c.211-.324.435-.657.669-1h1.716l.509-.949h-1.566l.023-.034c.025-.042.1-.151.223-.329s.262-.383.407-.6.278-.418.4-.612a1.861,1.861,0,0,0,.231-.429l.008-.054c0-.181-.142-.354-.481-.272a1.362,1.362,0,0,0-.566.317,1.424,1.424,0,0,0-.174.174c-.059.067-.106.124-.141.167a17.827,17.827,0,0,0-1.215,1.667h-1.01l-.529.949h.941c-.288.464-.579.926-.88,1.39-.245.392-.486.782-.726,1.17s-.482.788-.734,1.211c-.034.067-.1.186-.207.358s-.23.391-.357.63l-.047.089-.059.041-.537.386c-.223.162-.464.32-.7.461a.589.589,0,0,1-.167.062.275.275,0,0,1,0-.039,1.18,1.18,0,0,1,0-.149,5.338,5.338,0,0,0,.712-.813,6.817,6.817,0,0,0,.471-.706,3.065,3.065,0,0,0,.313-.712,1.085,1.085,0,0,0,0-.65.718.718,0,0,0-.539-.445,1.657,1.657,0,0,0-.761,0,3.584,3.584,0,0,0-.822.289,5.852,5.852,0,0,0-.845.507,7.219,7.219,0,0,0-.8.665,8.163,8.163,0,0,0-.809.91c-.066.086-.123.17-.18.255l-.015.021c-.425.322-.937.673-1.519,1.044q-.486.307-.989.622.178-.26.385-.569.339-.509.719-1.085t.728-1.073c.244-.348.45-.63.629-.862a2.373,2.373,0,0,1,.385-.432l.484-.35H123.13l-.057.057a5.354,5.354,0,0,0-.389.47c-.168.22-.356.48-.575.8s-.428.632-.655.977l-.27.41-.377.263-.595.411c-.207.143-.407.278-.6.4s-.335.217-.456.286c0-.02.009-.042.017-.067a4.49,4.49,0,0,1,.42-.962c.208-.375.44-.753.691-1.124s.49-.7.724-1a3.539,3.539,0,0,1,.517-.575l.474-.381-.607.036a2.066,2.066,0,0,1-.346-.005,1.771,1.771,0,0,0-.426.007l-.075.009-.049.059q-.251.3-.592.743c-.226.291-.456.612-.681.952-.19.286-.371.589-.553.922-.1.074-.235.166-.4.278l-.6.4c-.209.139-.411.275-.6.406-.161.11-.3.2-.4.274.019-.047.042-.1.068-.153q.1-.211.229-.433c.084-.147.176-.292.272-.43l.235-.336c.209-.218.417-.436.622-.655s.4-.426.577-.622.341-.371.487-.527.272-.289.369-.394l.3-.325h-1.239l-.053.043a5.376,5.376,0,0,0-.419.431c-.222.24-.49.52-.806.846s-.658.666-1.023,1.022-.7.673-1.02.954a6.586,6.586,0,0,1-.8.629,1.324,1.324,0,0,1-.127.074l.007-.034a1.508,1.508,0,0,1,.116-.3,4,4,0,0,1,.207-.362l.232-.367q.117-.155.384-.5c.174-.226.381-.47.612-.727s.476-.511.736-.761a6.038,6.038,0,0,1,.721-.608l.082-.058v-.1c0-.2-.221-.223-.3-.231a4.523,4.523,0,0,0-.61-.007c-.137.006-.218.014-.265.065a11.752,11.752,0,0,0-1.31,1.3,12.289,12.289,0,0,0-1.054,1.395,4.282,4.282,0,0,0-.547,1.156,1.1,1.1,0,0,0,.112.987.651.651,0,0,0,.541.251h0a1.645,1.645,0,0,0,.57-.125,3.229,3.229,0,0,0,.521-.264c.158-.1.273-.177.344-.229.036-.026.074-.055.114-.087a1.07,1.07,0,0,0,0,.307.461.461,0,0,0,.269.369.757.757,0,0,0,.558-.039,3.371,3.371,0,0,0,.633-.312q.363-.218.738-.462c.111-.071.221-.144.33-.219a1.457,1.457,0,0,0-.015.259,1,1,0,0,0,.124.477.63.63,0,0,0,.371.3.894.894,0,0,0,.55-.04,2.871,2.871,0,0,0,.605-.309l.089-.058-.477.735c-.372.238-.73.472-1.073.706s-.682.48-.986.72a8.988,8.988,0,0,0-.8.716,4.174,4.174,0,0,0-.566.7c-.1.168-.2.364-.323.589a1.543,1.543,0,0,0-.2.723,1.121,1.121,0,0,0,.137.617.529.529,0,0,0,.436.249h.024a1.065,1.065,0,0,0,.468-.125,3.483,3.483,0,0,0,.5-.313,7.311,7.311,0,0,0,.972-.873,9.524,9.524,0,0,0,.794-.973c.239-.336.466-.683.675-1.031s.4-.679.607-1.024q.418-.29.973-.652.582-.38,1.174-.757.481-.306.915-.592v.011a1.009,1.009,0,0,0,.15.751.72.72,0,0,0,.7.311,2.393,2.393,0,0,0,.8-.241,5.68,5.68,0,0,0,.825-.494c.2-.14.386-.279.559-.412a1.143,1.143,0,0,0,.373.383.813.813,0,0,0,.808-.047,6.667,6.667,0,0,0,.6-.349,1.9,1.9,0,0,0-.047.589.579.579,0,0,0,.364.511,1.029,1.029,0,0,0,.808-.011,5.111,5.111,0,0,0,.763-.387l.923-.636a1.987,1.987,0,0,0,.018.281.889.889,0,0,0,.609.771,1.518,1.518,0,0,0,.515.087,2.051,2.051,0,0,0,.58-.09,5.509,5.509,0,0,0,1.118-.488,11.159,11.159,0,0,0,1.036-.673c.323-.234.592-.43.81-.587l.1-.075Zm-1.116-1.72a3.706,3.706,0,0,1-1.469,1.3A2.048,2.048,0,0,1,134.135,91.62Zm-18.166,9.6v0h0Zm1.749-2.388c-.017.024-.067.085-.151.186s-.2.23-.332.37l-.418.445a4.263,4.263,0,0,1-.32.31c.02-.041.042-.084.067-.13a2.525,2.525,0,0,1,.233-.36,8.848,8.848,0,0,1,.978-1c.053-.045.106-.089.161-.135Zm8.739-6.55a.736.736,0,0,0-.463.36,1.915,1.915,0,0,0-.25.682,2.133,2.133,0,0,0,0,.762c-.169.152-.341.293-.508.42a6.282,6.282,0,0,1-.552.381,2.176,2.176,0,0,1-.449.217.59.59,0,0,1-.222.036.58.58,0,0,1,.039-.166,3.247,3.247,0,0,1,.374-.705,9.788,9.788,0,0,1,1.167-1.4,5.113,5.113,0,0,1,1.349-.946,1.784,1.784,0,0,1,.389-.147.509.509,0,0,1,.121-.017c.035,0,.053.006.053,0a.114.114,0,0,1,.008.054.917.917,0,0,1-.144.386c-.059.1-.138.225-.234.368-.027.04-.056.082-.086.124a.777.777,0,0,0-.038-.085C126.862,92.348,126.668,92.236,126.457,92.279Z" transform="translate(-32.375 -21.595)" fill="#fff"/></g></g></svg>