<svg xmlns="http://www.w3.org/2000/svg" xmlns:xlink="http://www.w3.org/1999/xlink" width="300.209" height="235.151" viewBox="0 0 300.209 235.151">
  <defs>
    <radialGradient id="radial-gradient" cx="0.002" cy="-0.191" r="1.186" gradientTransform="matrix(0.489, 0.624, -0.151, 0.301, 18.957, -81.66)" gradientUnits="objectBoundingBox">
      <stop offset="0" stop-color="#819ec7"/>
      <stop offset="1" stop-color="#fff"/>
    </radialGradient>
    <radialGradient id="radial-gradient-2" cx="92.302" cy="-113.032" r="1.411" gradientTransform="translate(0.201) scale(0.598 1)" xlink:href="#radial-gradient"/>
    <radialGradient id="radial-gradient-3" cx="0.533" cy="-1.166" r="1.211" gradientTransform="matrix(0.413, -0.395, 0.023, 0.121, 67.524, -302.339)" gradientUnits="objectBoundingBox">
      <stop offset="0" stop-color="#fff"/>
      <stop offset="0.13" stop-color="#ff63ce"/>
      <stop offset="1"/>
    </radialGradient>
  </defs>
  <g id="Grupo_63" data-name="Grupo 63" transform="translate(-1030.895 -259)">
    <g id="Grupo_62" data-name="Grupo 62">
      <g id="Grupo_11" data-name="Grupo 11" transform="translate(1000.895 35)">
        <g id="Grupo_10" data-name="Grupo 10" transform="translate(30 224)">
          <g id="Layer_1" data-name="Layer 1" transform="translate(0)">
            <path id="Trazado_8" data-name="Trazado 8" d="M579.578,298.551c-8.448-4.884-22.1-4.9-30.5-.062-5.846,3.378-7.584,8.225-5.249,12.476l-5.347,3.075,1.782,1.025L513.16,330.713v6.39H523.3v-3.93h6.648v-3.841h6.657v-3.841h6.817l7.521-4.34,1.782,1.025,5.347-3.083c7.415,1.346,15.809.348,21.655-3.03C588.062,311.259,588.017,303.381,579.578,298.551Zm-4.117,7.914a10.6,10.6,0,0,1-9.562,0c-2.673-1.533-2.673-4,0-5.525a10.6,10.6,0,0,1,9.562,0c2.611,1.488,2.611,3.957,0,5.481Z" transform="translate(-292.151 -131.209)" fill="#92b4d1" opacity="0.2"/>
            <path id="Trazado_9" data-name="Trazado 9" d="M577.988,297.641c-8.448-4.875-22.1-4.9-30.487-.053-5.855,3.378-7.593,8.225-5.258,12.476l-5.347,3.075,1.782,1.025L511.57,329.821V336.2h10.141v-3.93h6.657V328.44h6.648V324.6h6.808l7.521-4.34,1.782,1.025,5.347-3.075c7.414,1.346,15.809.339,21.664-3.039C586.472,310.394,586.436,302.516,577.988,297.641Zm-4.117,7.94a10.569,10.569,0,0,1-9.562,0c-2.673-1.533-2.673-4,0-5.525a10.6,10.6,0,0,1,9.562,0C576.491,301.563,576.509,304.031,573.871,305.582Z" transform="translate(-291.978 -131.11)" fill="#72b5e8"/>
            <path id="Trazado_10" data-name="Trazado 10" d="M577.988,294.211c-8.448-4.875-22.1-4.9-30.487-.053-5.855,3.378-7.593,8.225-5.258,12.476l-5.347,3.075,1.782,1.025L511.57,326.418V332.8l10.186.036V328.9h6.657v-3.841h6.648v-3.841h6.808l7.521-4.34,1.782,1.025,5.347-3.074c7.415,1.346,15.809.339,21.664-3.039C586.472,306.991,586.436,299.086,577.988,294.211Zm-4.117,7.914a10.569,10.569,0,0,1-9.562,0c-2.673-1.533-2.673-4,0-5.525a10.6,10.6,0,0,1,9.562,0C576.491,298.133,576.509,300.6,573.871,302.125Z" transform="translate(-291.978 -130.737)" fill="#d1ebff"/>
            <path id="Trazado_11" data-name="Trazado 11" d="M513.6,331.269V327.7l28.874-16.727-1.782-1.025,4.162-2.4-.838-1.533c-1.934-3.565-.223-7.334,4.59-10.106a28.954,28.954,0,0,1,14.258-3.378,29.346,29.346,0,0,1,14.446,3.431c3.565,2.041,5.472,4.634,5.472,7.307s-1.916,5.2-5.347,7.21a29.035,29.035,0,0,1-14.259,3.369h0a34.655,34.655,0,0,1-6.238-.544l-.642-.116-4.982,2.923-1.782-1.025-7.949,4.589h-8.127v3.841H526.8v3.841h-6.6v3.921Zm55.653-37.349a11.486,11.486,0,0,0-5.641,1.372,4.661,4.661,0,0,0,0,8.609,12.333,12.333,0,0,0,11.344,0,4.661,4.661,0,0,0,0-8.609,11.585,11.585,0,0,0-5.7-1.408Z" transform="translate(-292.199 -130.954)" fill="#a8cff0" opacity="0.5"/>
            <path id="Trazado_12" data-name="Trazado 12" d="M277.3,202.928l-.749-.428L248.42,218.737v.873Z" transform="translate(-27.037 -22.04)" fill="#72b5e8" opacity="0.5"/>
            <path id="Trazado_13" data-name="Trazado 13" d="M569.405,305.651a11.586,11.586,0,0,0,5.7,1.39,11.4,11.4,0,0,0,5.641-1.381,5.07,5.07,0,0,0,2.861-4.278,3.463,3.463,0,0,0,0-.437,5.222,5.222,0,0,1-2.825,3.85,12.334,12.334,0,0,1-11.344,0,5.267,5.267,0,0,1-2.852-3.885,3.486,3.486,0,0,0,0,.437A5.142,5.142,0,0,0,569.405,305.651Z" transform="translate(-297.966 -131.866)" fill="#72b5e8" opacity="0.5"/>
            <path id="Trazado_14" data-name="Trazado 14" d="M552.229,296.781a29.052,29.052,0,0,1,14.259-3.378,34.412,34.412,0,0,1,5.98.508h.4a11.586,11.586,0,0,1,5.7,1.39,6.811,6.811,0,0,1,1.381,1.034c.33.16.659.321.971.5,3.333,1.934,5.231,4.358,5.427,6.88a3.486,3.486,0,0,0,0-.437c0-2.673-1.943-5.267-5.472-7.308a29.346,29.346,0,0,0-14.446-3.431,28.955,28.955,0,0,0-14.259,3.377c-3.68,2.121-5.543,4.839-5.347,7.593C547.1,301.059,548.931,298.688,552.229,296.781Z" transform="translate(-295.814 -130.954)" fill="#72b5e8" opacity="0.5"/>
            <path id="Trazado_15" data-name="Trazado 15" d="M283.012,199.059l-.365-.659-3.8,2.192.749.437Z" transform="translate(-30.349 -21.594)" fill="#72b5e8" opacity="0.5"/>
            <rect id="Rectángulo_25" data-name="Rectángulo 25" width="0.009" height="3.057" transform="matrix(1, -0.005, 0.005, 1, 227.981, 197.195)" fill="#72b5e8" opacity="0.5"/>
            <rect id="Rectángulo_26" data-name="Rectángulo 26" width="0.009" height="2.968" transform="matrix(1, -0.005, 0.005, 1, 241.218, 189.584)" fill="#72b5e8" opacity="0.5"/>
            <rect id="Rectángulo_27" data-name="Rectángulo 27" width="0.009" height="2.968" transform="matrix(1, -0.005, 0.005, 1, 234.582, 193.416)" fill="#72b5e8" opacity="0.5"/>
            <path id="Trazado_16" data-name="Trazado 16" d="M268,192.42v3.841l1.265-2.593Z" transform="translate(-29.168 -20.943)" fill="#72b5e8"/>
            <path id="Trazado_17" data-name="Trazado 17" d="M575.6,296.987c-6-5.962-19.2-8.02-29.489-4.589-7.129,2.388-11.015,6.808-10.694,11.282l-6.532,2.174,1.256,1.257-33.222,11.068-2.816,6.158,9.8,1.524,1.729-3.787,6.47.98,1.693-3.707,6.434,1,1.693-3.707,6.586,1.025,9.215-3.066,1.256,1.248,6.532-2.174a35.486,35.486,0,0,0,22.324.294C578.119,310.577,581.594,302.949,575.6,296.987Zm-7.513,7.022c-3.226,1.078-7.37.428-9.25-1.435s-.793-4.26,2.433-5.347,7.37-.428,9.25,1.444S571.31,302.931,568.084,304.009Z" transform="translate(-290.077 -130.758)" fill="#92b4d1" opacity="0.2"/>
            <path id="Trazado_18" data-name="Trazado 18" d="M575.6,296.357c-6-5.962-19.2-8.02-29.489-4.589-7.129,2.388-11.015,6.8-10.694,11.282l-6.532,2.174,1.256,1.248L496.916,317.54l-2.816,6.167,9.8,1.524,1.729-3.8,6.434,1.007,1.693-3.707,6.434,1,1.693-3.707,6.586,1.025,9.215-3.075,1.257,1.257,6.532-2.174a35.557,35.557,0,0,0,22.324.294C578.119,309.92,581.594,302.31,575.6,296.357Zm-7.513,7.022c-3.226,1.069-7.37.428-9.25-1.444s-.793-4.251,2.433-5.347,7.37-.428,9.25,1.435S571.31,302.3,568.084,303.379Z" transform="translate(-290.077 -130.69)" fill="#72b5e8"/>
            <path id="Trazado_19" data-name="Trazado 19" d="M575.6,292.927c-6-5.962-19.2-8.02-29.489-4.589-7.129,2.388-11.015,6.8-10.694,11.282l-6.532,2.174,1.256,1.248L496.916,314.11l-2.816,6.167,9.8,1.524,1.729-3.8,6.47,1.043,1.693-3.716,6.434,1.007,1.693-3.707,6.586,1.025,9.215-3.075,1.256,1.257,6.532-2.174a35.646,35.646,0,0,0,22.324.294C578.119,306.49,581.594,298.88,575.6,292.927Zm-7.513,7.022c-3.226,1.069-7.37.428-9.25-1.444s-.793-4.251,2.433-5.347,7.37-.428,9.25,1.435S571.31,298.871,568.084,299.949Z" transform="translate(-290.077 -130.317)" fill="#d1ebff"/>
            <path id="Trazado_20" data-name="Trazado 20" d="M497.84,318.769,499,316.22l35.78-11.915-1.257-1.257,4.723-1.568-.134-1.782c-.276-3.5,3.306-7.022,9.117-8.956a33.409,33.409,0,0,1,20.719.214,14.041,14.041,0,0,0-2.914-.3,12.947,12.947,0,0,0-4.073.633c-2.575.891-4.322,2.486-4.786,4.456a4.857,4.857,0,0,0,1.47,4.607,10.788,10.788,0,0,0,7.486,2.62,13.207,13.207,0,0,0,4.073-.633c2.575-.891,4.322-2.5,4.785-4.456a4.866,4.866,0,0,0-1.471-4.616l-.08-.08a13.644,13.644,0,0,1,1.969,1.6,6.379,6.379,0,0,1,2.13,5.819c-.7,2.994-4.073,5.775-9.01,7.423a32.287,32.287,0,0,1-9.972,1.533h0a31.992,31.992,0,0,1-10.854-1.782l-.749-.276L540,309.518l-1.266-1.248L528.719,311.6l-7.735-1.194-1.693,3.707-6.434-1.034-1.693,3.707-6.434-1.034L503,319.544Z" transform="translate(-290.484 -130.591)" fill="#a8cff0" opacity="0.5"/>
            <g id="Grupo_8" data-name="Grupo 8" transform="translate(207.356 158.627)" opacity="0.5">
              <path id="Trazado_21" data-name="Trazado 21" d="M582.84,295.588c.223.2.454.392.659.6a7.129,7.129,0,0,1,2.237,4.215,6.6,6.6,0,0,0-2.237-5.106,13.644,13.644,0,0,0-1.969-1.6l.08.08a5.568,5.568,0,0,1,1.23,1.818Z" transform="translate(-506.949 -289.707)" fill="#72b5e8"/>
              <path id="Trazado_22" data-name="Trazado 22" d="M564.807,301.364a5.124,5.124,0,0,1-1.56-3.164,4.928,4.928,0,0,0,1.56,4.055,10.788,10.788,0,0,0,7.486,2.62,13.207,13.207,0,0,0,4.073-.633c2.575-.891,4.322-2.5,4.786-4.456a4.455,4.455,0,0,0,.089-1.453,4.068,4.068,0,0,1-.089.561c-.463,1.978-2.21,3.609-4.786,4.456a13.205,13.205,0,0,1-4.073.633A10.616,10.616,0,0,1,564.807,301.364Z" transform="translate(-504.957 -290.197)" fill="#72b5e8"/>
              <path id="Trazado_23" data-name="Trazado 23" d="M543,299.834c.267-3.244,3.725-6.39,9.108-8.181a32.083,32.083,0,0,1,10-1.542,34.492,34.492,0,0,1,6.535.624,12.089,12.089,0,0,1,1.272-.072,14.034,14.034,0,0,1,2.914.312,33.41,33.41,0,0,0-20.72-.214c-5.81,1.934-9.393,5.454-9.117,8.956Z" transform="translate(-502.752 -289.22)" fill="#72b5e8"/>
              <path id="Trazado_24" data-name="Trazado 24" d="M277.443,192.653l-.071-.873-4.652,1.551.677.668Z" transform="translate(-237.038 -179.5)" fill="#72b5e8"/>
              <path id="Trazado_25" data-name="Trazado 25" d="M233.847,207.763l35.78-11.915-.677-.668-35.1,11.692-1.167,2.549.383.053Z" transform="translate(-232.68 -179.87)" fill="#72b5e8"/>
            </g>
            <path id="Trazado_26" data-name="Trazado 26" d="M228.97,213.15v3.057l9.812,1.524v-3.057Z" transform="translate(-24.92 -23.199)" fill="#a8cff0" opacity="0.5"/>
            <path id="Trazado_27" data-name="Trazado 27" d="M241.92,210.61v3.057l6.434,1v-3.057Z" transform="translate(-26.33 -22.923)" fill="#a8cff0" opacity="0.5"/>
            <path id="Trazado_28" data-name="Trazado 28" d="M251.04,207.57v3.057l6.434,1.007v-3.066Z" transform="translate(-27.322 -22.592)" fill="#a8cff0" opacity="0.5"/>
            <path id="Trazado_29" data-name="Trazado 29" d="M260.16,204.53V207.6l6.586,1.025v-3.057Z" transform="translate(-28.315 -22.261)" fill="#a8cff0" opacity="0.5"/>
            <path id="Trazado_30" data-name="Trazado 30" d="M277.89,202.24V205.3l1.257,1.248V203.5Z" transform="translate(-30.244 -22.012)" fill="#a8cff0" opacity="0.5"/>
            <path id="Trazado_31" data-name="Trazado 31" d="M566.4,277.865a.462.462,0,0,1-.241-.062.446.446,0,0,1-.134-.615c.321-.517.651-1.016,1-1.506a.448.448,0,1,1,.731.517c-.339.481-.668.962-.98,1.462a.436.436,0,0,1-.374.2Zm2.62-3.565a.446.446,0,0,1-.348-.731c.392-.463.793-.891,1.194-1.355a.448.448,0,1,1,.659.606c-.4.428-.793.891-1.167,1.319a.437.437,0,0,1-.339.125Zm3.083-3.208a.464.464,0,0,1-.33-.143.446.446,0,0,1,0-.633c.445-.41.891-.793,1.381-1.167a.446.446,0,0,1,.552.7c-.454.365-.891.74-1.337,1.132a.445.445,0,0,1-.267.08Zm25.549-1.221a.437.437,0,0,1-.33-.143,14.454,14.454,0,0,0-1.248-1.2.446.446,0,1,1,.588-.668,17.627,17.627,0,0,1,1.319,1.265.455.455,0,0,1,0,.633.446.446,0,0,1-.33.08Zm-22.012-1.488a.446.446,0,0,1-.25-.82l1.025-.624.544-.3a.448.448,0,0,1,.419.793l-.517.285c-.33.2-.659.392-.98.6a.419.419,0,0,1-.241.036Zm18.554-1.3a.419.419,0,0,1-.223-.062,13.128,13.128,0,0,0-1.542-.775.447.447,0,1,1,.356-.82,15.694,15.694,0,0,1,1.64.829.455.455,0,0,1,.151.615.437.437,0,0,1-.383.178Zm-14.606-.74a.449.449,0,0,1-.169-.864c.579-.223,1.149-.428,1.72-.6a.464.464,0,0,1,.562.3.455.455,0,0,1-.3.552c-.544.169-1.1.356-1.649.57a.347.347,0,0,1-.16,0Zm10.489-.891h-.107a15.46,15.46,0,0,0-1.7-.3.446.446,0,0,1-.392-.49.454.454,0,0,1,.5-.392,15.224,15.224,0,0,1,1.782.321.437.437,0,0,1,.33.535.428.428,0,0,1-.428.276Zm-6.194-.25a.447.447,0,1,1-.062-.891c.6-.08,1.212-.134,1.782-.16a.445.445,0,0,1,.463.428.455.455,0,0,1-.428.463,15.968,15.968,0,0,0-1.729.151Z" transform="translate(-297.897 -127.865)" fill="#eb4680"/>
            <path id="Trazado_32" data-name="Trazado 32" d="M576.126,262.394a.446.446,0,0,1-.223-.829,19.686,19.686,0,0,1,9.91-2.825.446.446,0,0,1,0,.891,18.893,18.893,0,0,0-9.464,2.674A.4.4,0,0,1,576.126,262.394Z" transform="translate(-298.956 -127.276)" fill="#a8cff0"/>
            <path id="Trazado_33" data-name="Trazado 33" d="M573.72,299.166l1.114-.16a6.977,6.977,0,0,1-1.159-4.26c0-5.926,4.206-13.171,9.366-16.148a7.86,7.86,0,0,1,3.814-1.194c2.593,0,4.135,2.13,4.135,5.712a20.016,20.016,0,0,1-3.966,11.068l.383.25c.651.633.936,1.087,1.6,1.729l-.062.169a22.911,22.911,0,0,0,4.884-13.216c0-5.187-2.736-8.546-6.969-8.546a10.543,10.543,0,0,0-5.231,1.577c-6.042,3.484-10.774,11.656-10.774,18.6a10.692,10.692,0,0,0,.838,4.349Z" transform="translate(-298.431 -128.999)" fill="#2672ab"/>
            <path id="Trazado_34" data-name="Trazado 34" d="M572.919,294.179c0-6.238,4.3-13.563,9.749-16.683,2.923-1.675,5.766-1.889,8.021-.6a4.461,4.461,0,0,1,.472.33,6.06,6.06,0,0,0-1.551-1.3c-2.219-1.292-5.053-1.087-8.02.6-5.436,3.119-9.722,10.444-9.74,16.683C571.841,295.961,572.875,296.594,572.919,294.179Z" transform="translate(-298.539 -129.055)" fill="#3f92d1"/>
            <path id="Trazado_35" data-name="Trazado 35" d="M594.868,285.022c0-1.978-.6-3.467-1.658-4.082a1.454,1.454,0,0,0-.169-.08,5.944,5.944,0,0,1,.775,3.208c0,4.456-2.005,7.637-3.663,10.2a.891.891,0,0,0,.321,1.239h0a.472.472,0,0,0,.624-.143C592.32,293.577,594.851,289.5,594.868,285.022Z" transform="translate(-300.517 -129.684)" fill="#3f92d1"/>
            <path id="Trazado_36" data-name="Trazado 36" d="M290.543,209.925v3.057l-1.773-1.025V208.9Z" transform="translate(-31.429 -22.737)" fill="#a8cff0" opacity="0.5"/>
            <path id="Trazado_37" data-name="Trazado 37" d="M272.69,213.75v3.066l6.808.009v-3.057Z" transform="translate(-29.679 -23.264)" fill="#a8cff0" opacity="0.5"/>
            <path id="Trazado_38" data-name="Trazado 38" d="M271.9,218.059v3.066l-6.648-.018V218.05Z" transform="translate(-28.869 -23.732)" fill="#a8cff0" opacity="0.5"/>
            <path id="Trazado_39" data-name="Trazado 39" d="M264.458,222.359v3.057l-6.648-.009V222.35Z" transform="translate(-28.059 -24.2)" fill="#a8cff0" opacity="0.5"/>
            <path id="Trazado_40" data-name="Trazado 40" d="M256.591,226.749v3.066H246.45V226.74Z" transform="translate(-26.823 -24.678)" fill="#a8cff0" opacity="0.5"/>
            <path id="Trazado_41" data-name="Trazado 41" d="M379.516,353.223,442.2,316.685c4.046-2.335,3.565-6.416-1.132-9.117l-94.588-54.61c-4.67-2.673-11.737-2.994-15.782-.659l-62.693,36.538c-4.046,2.335-3.565,6.416,1.132,9.117l94.588,54.61C368.4,355.237,375.462,355.557,379.516,353.223Z" transform="translate(-265.171 -126.404)" fill="#92b4d1" opacity="0.2"/>
            <path id="Trazado_42" data-name="Trazado 42" d="M282.889,281.929l6.755,2.522,41.056-25.14-6.755-2.522a17.761,17.761,0,0,0-13.661,1.461l-7.7,4.714-1.854-.686a16.649,16.649,0,0,0-12.931,1.435c-3.413,2.157-2.905,4.91.731,6.238l1.64.606-7.7,4.714c-1.649,1.007-2.584,2.219-2.62,3.4C279.805,280.066,280.875,281.2,282.889,281.929Zm8.537-14.205c-1.675-.615-1.782-1.889-.187-2.852a7.637,7.637,0,0,1,5.864-.624c1.666.615,1.782,1.889.178,2.852a7.619,7.619,0,0,1-5.855.624Z" transform="translate(-266.758 -126.983)" fill="#a8cff0"/>
            <path id="Trazado_43" data-name="Trazado 43" d="M379.086,351.807l62.72-36.591c4.028-2.317,3.565-6.381-1.123-9.063L346.3,251.729c-4.643-2.673-11.674-2.976-15.7-.651l-62.72,36.538c-4.028,2.326-3.52,6.39,1.123,9.072l94.356,54.459C368.009,353.838,375.04,354.124,379.086,351.807Z" transform="translate(-265.159 -126.272)" fill="#084c94"/>
            <path id="Trazado_44" data-name="Trazado 44" d="M374.482,369.813h0a16.782,16.782,0,0,1-1.782-.116.443.443,0,1,1,.08-.882c.579.053,1.167.089,1.782.107a.446.446,0,0,1,0,.891Zm2.673,0a.455.455,0,0,1-.446-.419.446.446,0,0,1,.419-.472,15.44,15.44,0,0,0,1.782-.169.428.428,0,0,1,.5.374.446.446,0,0,1-.383.508c-.579.071-1.185.134-1.782.178Zm-7.129-.446h-.08q-.891-.169-1.782-.4a.446.446,0,0,1-.321-.544.454.454,0,0,1,.544-.321c.561.151,1.132.276,1.711.383a.448.448,0,1,1-.089.891Zm11.5-.232a.449.449,0,1,1-.107-.891c.57-.143,1.132-.3,1.675-.49a.447.447,0,0,1,.285.847c-.561.187-1.15.365-1.738.508Zm-15.782-.954a.417.417,0,0,1-.151,0c-.57-.214-1.141-.446-1.684-.686a.445.445,0,1,1,.365-.811c.526.232,1.069.454,1.622.659a.446.446,0,0,1,.267.57.463.463,0,0,1-.392.232ZM385.7,367.6a.446.446,0,0,1-.2-.838c.33-.16.642-.339.954-.517l.579-.339a.449.449,0,0,1,.455.775l-.588.339c-.321.187-.659.365-1,.535a.393.393,0,0,1-.169.009Zm-23.963-1.363a.4.4,0,0,1-.223-.062l-1.56-.9a.446.446,0,0,1-.169-.606.454.454,0,0,1,.615-.16l1.542.891a.446.446,0,0,1-.223.829Zm27.849-.891a.428.428,0,0,1-.383-.223.446.446,0,0,1,.152-.606l1.542-.891a.449.449,0,0,1,.454.775l-1.542.891a.419.419,0,0,1-.214.062ZM357.88,364a.4.4,0,0,1-.223-.062l-1.551-.891a.446.446,0,0,1-.16-.606.437.437,0,0,1,.606-.16l1.551.891a.446.446,0,0,1-.223.829Zm35.557-.891a.463.463,0,0,1-.392-.214.454.454,0,0,1,.16-.615l1.542-.891a.449.449,0,0,1,.454.775l-1.542.891a.419.419,0,0,1-.214.054Zm-39.416-1.328a.4.4,0,0,1-.223-.062l-1.551-.891a.446.446,0,0,1,.446-.766l1.551.891a.446.446,0,0,1-.223.829Zm43.257-.891a.445.445,0,0,1-.383-.214.455.455,0,0,1,.16-.615l1.542-.891a.437.437,0,0,1,.606.151.454.454,0,0,1-.16.615l-1.533.891a.518.518,0,0,1-.223.036Zm-47.125-1.337a.383.383,0,0,1-.223-.062l-1.551-.891a.446.446,0,1,1,.446-.766l1.551.891a.445.445,0,0,1-.223.829Zm50.965-.891a.446.446,0,0,1-.223-.838l1.542-.891a.437.437,0,0,1,.606.16.446.446,0,0,1-.16.606l-1.533.891a.526.526,0,0,1-.214.036Zm-54.824-1.3a.383.383,0,0,1-.223-.062l-1.551-.891a.446.446,0,0,1,.446-.766l1.551.891a.419.419,0,0,1-.2.793Zm-3.868-2.228a.419.419,0,0,1-.223-.062l-1.542-.891a.454.454,0,0,1-.16-.615.437.437,0,0,1,.606-.16l1.542.891a.446.446,0,0,1-.223.829Zm-3.859-2.228a.509.509,0,0,1-.223-.054l-1.56-.945a.454.454,0,0,1-.16-.615.437.437,0,0,1,.606-.16l1.542.891a.446.446,0,0,1-.223.829Zm-3.859-2.228a.508.508,0,0,1-.223-.053l-1.542-.891a.454.454,0,0,1-.16-.615.437.437,0,0,1,.606-.16l1.542.891a.417.417,0,0,1-.205.793Zm-3.859-2.228a.508.508,0,0,1-.223-.054l-1.542-.891a.447.447,0,0,1,.446-.775l1.542.891a.417.417,0,0,1-.205.793Zm-3.859-2.228a.509.509,0,0,1-.223-.053l-1.542-.891a.447.447,0,1,1,.446-.775l1.542.891a.446.446,0,0,1,.16.606.428.428,0,0,1-.392.187ZM323.134,344a.527.527,0,0,1-.223-.062l-1.542-.891a.447.447,0,1,1,.446-.775l1.542.891a.422.422,0,0,1-.205.8Zm-3.859-2.228a.419.419,0,0,1-.223-.062l-1.542-.891a.447.447,0,1,1,.446-.775l1.542.891a.454.454,0,0,1,.16.615.446.446,0,0,1-.365.187Zm-3.859-2.228a.419.419,0,0,1-.223-.062l-1.542-.891a.437.437,0,0,1-.16-.606.446.446,0,0,1,.606-.169l1.542.891a.455.455,0,0,1,.16.615.446.446,0,0,1-.4.187Zm-3.859-2.228a.4.4,0,0,1-.223-.062l-1.542-.891a.437.437,0,0,1-.16-.606.428.428,0,0,1,.606-.16l1.542.891a.446.446,0,0,1-.223.829Zm-3.859-2.228a.4.4,0,0,1-.223-.062l-1.542-.891a.446.446,0,1,1,.446-.766l1.542.891a.446.446,0,0,1-.223.829Zm-3.859-2.228a.4.4,0,0,1-.223-.062l-1.542-.891a.446.446,0,1,1,.446-.766l1.542.891a.446.446,0,0,1-.223.829Zm-3.859-2.228a.4.4,0,0,1-.223-.062l-1.542-.891a.446.446,0,1,1,.446-.766l1.542.891a.446.446,0,0,1-.223.829Zm-3.859-2.228a.4.4,0,0,1-.223-.062l-1.542-.891a.446.446,0,1,1,.446-.766l1.542.891a.446.446,0,0,1-.223.829Z" transform="translate(-268.309 -134.662)" fill="#eb4680"/>
            <path id="Trazado_45" data-name="Trazado 45" d="M379.086,350.352l62.72-36.591c4.028-2.317,3.565-6.381-1.123-9.063L346.3,250.239c-4.643-2.673-11.674-2.977-15.7-.651l-62.72,36.591c-4.028,2.317-3.52,6.381,1.123,9.063L363.357,349.7C368.009,352.384,375.04,352.678,379.086,350.352Z" transform="translate(-265.159 -126.109)" fill="#2672ab"/>
            <path id="Trazado_46" data-name="Trazado 46" d="M269,299.639,363.359,354.1c4.652,2.673,11.683,2.976,15.7.651l62.72-36.591a4.8,4.8,0,0,0,2.673-3.618c.16,1.613-.722,3.173-2.673,4.313l-62.693,36.6c-4.019,2.326-11.05,2.032-15.7-.651L269,300.334c-2.673-1.56-3.983-3.565-3.814-5.454C265.358,296.555,266.641,298.275,269,299.639Z" transform="translate(-265.161 -131.209)" fill="#3f92d1"/>
            <path id="Trazado_47" data-name="Trazado 47" d="M108.38,234.259,172.927,190.6l-101.2-49.2L7.18,185.058Z" transform="translate(-0.781 -15.39)" fill="#d1ebff"/>
            <path id="Trazado_48" data-name="Trazado 48" d="M107.01,232.759,171.557,189.1,70.366,139.9,5.81,183.558Z" transform="translate(-0.631 -15.227)" fill="#f0f8ff"/>
            <path id="Trazado_49" data-name="Trazado 49" d="M108.148,235.472l68.174-39.354L77.884,139.28,9.71,178.643Z" transform="translate(-1.056 -15.159)" fill="#d1ebff"/>
            <path id="Trazado_50" data-name="Trazado 50" d="M107.058,233.811l67.488-38.962L77.1,138.59,9.61,177.552Z" transform="translate(-1.045 -15.084)" fill="#fff"/>
            <path id="Trazado_51" data-name="Trazado 51" d="M282.964,282.026l6.3,2.968,40.993-23.678-6.309-2.968a13.572,13.572,0,0,0-7.022-1.56,13.368,13.368,0,0,0-6.158,1.577l-7.7,4.456-1.649-1.007a13.626,13.626,0,0,0-12.476.089c-3.351,2.005-3.11,5.231.285,7.183l1.524.891-7.691,4.456A4.869,4.869,0,0,0,280.317,278C280.13,279.486,281.11,280.956,282.964,282.026Zm9.125-15.15c-1.551-.891-1.542-2.362,0-3.271a6.238,6.238,0,0,1,5.659,0c1.559.891,1.551,2.362,0,3.262a6.238,6.238,0,0,1-5.659.027Z" transform="translate(-266.806 -127.062)" fill="#d1ebff"/>
            <path id="Trazado_52" data-name="Trazado 52" d="M283.465,280.5l6.3,3.68L330.759,260.5l-6.274-3.689a13.59,13.59,0,0,0-7.022-1.56,13.367,13.367,0,0,0-6.193,1.56l-7.7,4.456-1.738-1a13.608,13.608,0,0,0-12.476.089c-3.351,2.005-3.11,5.231.285,7.183l1.524.891-7.7,4.456a4.877,4.877,0,0,0-2.736,3.565C280.631,277.964,281.611,279.434,283.465,280.5Zm9.125-15.15c-1.56-.891-1.551-2.362,0-3.271a6.238,6.238,0,0,1,5.659,0c1.56.891,1.551,2.362,0,3.262a6.238,6.238,0,0,1-5.695.027Z" transform="translate(-266.853 -126.894)" fill="#a8cff0"/>
            <path id="Trazado_53" data-name="Trazado 53" d="M293.919,262.147a6.238,6.238,0,0,1,5.659,0,1.827,1.827,0,0,1,1.123,1.943,2.183,2.183,0,0,0-1.123-1.31,6.238,6.238,0,0,0-5.659,0,2.246,2.246,0,0,0-1.141,1.328,1.845,1.845,0,0,1,1.141-1.961Z" transform="translate(-268.163 -127.573)" fill="#d1ebff"/>
            <path id="Trazado_54" data-name="Trazado 54" d="M290.441,267.941l1.524.891-.544.321-.98-.57c-1.916-1.105-2.825-2.611-2.674-4.073A4.789,4.789,0,0,0,290.441,267.941Z" transform="translate(-267.618 -127.904)" fill="#d1ebff"/>
            <path id="Trazado_55" data-name="Trazado 55" d="M283.475,280.475l6.3,3.68,40.477-23.375.544.321L289.8,284.788l-6.3-3.681c-1.854-1.069-2.834-2.54-2.673-4.055h0A4.794,4.794,0,0,0,283.475,280.475Z" transform="translate(-266.863 -127.498)" fill="#72b5e8"/>
            <path id="Trazado_56" data-name="Trazado 56" d="M23.792,168.707l35.967-20.764-1.542-.873L22.25,167.834Z" transform="translate(-2.421 -16.007)" fill="#d1ebff"/>
            <path id="Trazado_57" data-name="Trazado 57" d="M24.2,169.216l35.967-20.764-1.542-.882L22.66,168.334Z" transform="translate(-2.465 -16.061)" fill="#72b5e8"/>
            <path id="Trazado_58" data-name="Trazado 58" d="M317.183,277.693l1.658.962,3.342-1.934-1.658-.954Zm15.613-4.9-18.714,10.819,1.666.954,18.714-10.819Zm-28.811,14.437,13.43-7.753-1.666-.954-13.43,7.753Zm41.885-21.985L334.2,271.963l1.658.954,11.71-6.719Zm-9.045,1.114-14.856,8.582,1.658.954,14.856-8.573Zm12.138-.98,3.484-2.014-1.658-.954-3.484,2.005ZM300.9,287.1l-5.962,3.458,1.666.954,5.944-3.431Zm11.728-2.673-14.116,8.154,1.658.962,14.125-8.154Z" transform="translate(-268.4 -127.675)" fill="#0fbab8"/>
            <path id="Trazado_59" data-name="Trazado 59" d="M327.279,285.965l1.248.722,2.513-1.453-1.248-.713Zm14.33-5.169-16.683,9.625,1.248.722,16.683-9.616Zm-10.694,9.241,1.248.722,7.085-4.073L338,285.965Zm13.563-4.679-12.69,7.316,1.248.722,12.69-7.316Zm-30.21,9.6,13.207-7.611-1.248-.722-13.207,7.611Zm6.755,2.29,10.088-5.828-1.248-.722-10.1,5.828Zm33.454-23.856L342.7,280.208l1.248.722,11.763-6.817Zm5.017,6.363-17.1,9.9,1.248.722,17.1-9.9Zm-18.18,10.525-12.69,7.316,1.248.713L342.563,291Zm11.015-8.02-1.248-.722-5.525,3.226,1.248.713Zm-7.673-6.238-13.768,7.931,1.248.722,13.768-7.931Zm-4.3,10.1,11.585-6.693-1.248-.722-11.541,6.693Zm12.592-7.281,12.53-7.272-1.248-.722-12.53,7.272Zm3.823-5.3,6.033-3.511-1.248-.722-6.033,3.511Zm-44.852,21.388L307.46,297.5l1.248.722,4.456-2.584Zm58.915-20.256-1.248-.722-9.063,5.2,1.248.713Zm-4.073-2.219-14.579,8.448,1.248.722,14.579-8.448Zm-39.211,25.763-9.384,5.4,1.257.722,9.375-5.4Zm-3.672-7.129-13.733,7.9,1.248.722,13.733-7.9Zm-5.169,6.069-5.891,3.386,1.248.713,5.891-3.378ZM329.9,293.78l-14.41,8.3,1.248.722,14.374-8.315Z" transform="translate(-269.763 -128.425)" fill="#72b5e8"/>
            <path id="Trazado_60" data-name="Trazado 60" d="M344.571,295.951l1.248.722,2.513-1.453-1.248-.722Zm14.33-5.169-16.727,9.625,1.248.713,16.683-9.625Zm-10.694,9.241,1.248.722,7.085-4.081-1.274-.713Zm13.528-4.714-12.708,7.272,1.248.722L362.964,296Zm-30.246,9.553,13.207-7.6-1.248-.722-13.207,7.6Zm6.764,2.29L348.34,301.3l-1.248-.713L337,306.4ZM371.7,283.3l-11.763,6.817,1.248.722,11.763-6.826Zm-2.174,8.849-1.248-.722-5.525,3.217,1.248.722Zm-7.673-6.238-13.715,7.931,1.248.713,13.768-7.931Zm-4.3,10.106,11.585-6.693-1.248-.722-11.54,6.693Zm12.619-7.316,12.53-7.272-1.248-.713-12.53,7.263Zm3.823-5.294,6.033-3.52-1.248-.722-6.033,3.52ZM329.136,304.8l-4.456,2.584,1.248.722,4.456-2.584Zm54.8-22.4-14.579,8.448,1.248.722,14.579-8.457Zm-42.865,18.616-13.733,7.914,1.248.722,13.733-7.914ZM335.9,307.09l-5.891,3.378,1.248.722,5.891-3.378Zm11.193-3.378-14.383,8.279,1.248.713,14.41-8.3Z" transform="translate(-271.637 -129.5)" fill="#72b5e8"/>
            <path id="Trazado_61" data-name="Trazado 61" d="M359.584,304.337l1.248.713,2.513-1.444-1.248-.722Zm14.33-5.178-16.683,9.616,1.248.722,16.683-9.616Zm-10.694,9.25,1.248.713,7.129-4.073-1.248-.722Zm13.528-4.714L364.057,311l1.248.722L378,304.408Zm-30.21,9.589,13.207-7.611-1.248-.722-13.171,7.611Zm6.808,2.3,10.088-5.828-1.248-.722L352.1,314.862Zm33.445-23.856-11.763,6.826,1.248.713,11.763-6.817Zm5.017,6.372-17.075,9.892,1.248.722,17.1-9.9Zm-18.171,10.516-12.7,7.316,1.257.722,12.681-7.307Zm11.006-8.02-1.248-.722L377.87,303.1l1.248.722Zm-7.673-6.238-13.76,7.931,1.248.722,13.751-7.922Zm-4.3,10.1,11.532-6.684-1.248-.722-11.532,6.693Zm12.61-7.308,12.539-7.272-1.248-.722-12.539,7.272Zm3.832-5.3,6.033-3.511-1.248-.722-6.033,3.52Zm-44.861,21.388-4.456,2.575,1.248.722,4.456-2.575Zm58.915-20.247-1.248-.722-9.036,5.249,1.248.722Zm-4.108-2.165-14.588,8.457,1.248.722,14.579-8.475Zm-39.211,25.772-9.384,5.392,1.248.722,9.384-5.4Zm-3.672-7.129-13.733,7.914,1.248.722,13.733-7.913ZM351,315.539l-5.882,3.378,1.248.722,5.882-3.378Zm11.193-3.378-14.4,8.3,1.248.722,14.4-8.3Zm9.125.891,1.248.722,7.085-4.073-1.248-.722Zm13.537-4.714-12.69,7.316,1.248.722,12.69-7.316ZM361.4,320.226,371.49,314.4l-1.248-.722L360.154,319.5Zm31.306-15.007-1.248-.722-5.534,3.226,1.248.713Zm-11.977,3.859,11.541-6.693-1.248-.713-11.585,6.684Zm12.61-7.308,12.583-7.3-1.248-.722-12.539,7.272Zm13.777-6.345-14.562,8.421,1.248.722,14.588-8.448Zm-48.042,24.7-5.882,3.378,1.248.722,5.882-3.386Zm11.2-3.4-14.41,8.3,1.248.722,14.41-8.3Z" transform="translate(-273.283 -130.418)" fill="#72b5e8"/>
            <path id="Trazado_62" data-name="Trazado 62" d="M416.4,308.444l1.248.722,4.456-2.584-1.248-.722Zm10.124-2.754-10.088,5.828,1.248.722,10.1-5.828Zm-20.042,9.928,10.1-5.828-1.248-.722-10.1,5.81Zm12.093,2.308,10.614-6.131-1.248-.722L417.324,317.2Zm-14.41-2.406-2.772,1.6,1.248.722,2.772-1.6Zm11.193-3.378-11.291,6.514,1.248.722,11.291-6.514Z" transform="translate(-279.986 -132.386)" fill="#72b5e8"/>
            <path id="Trazado_63" data-name="Trazado 63" d="M373.974,329.06l21.958,3.894h.045a.258.258,0,0,0,.045-.508L376.2,328.962a16.593,16.593,0,0,1,10.694-1.551c3.645.642,6.4,2.362,7.183,4.456l.481-.178c-.891-2.29-3.752-4.126-7.575-4.8a17.021,17.021,0,0,0-11.139,1.666l.214.356-2-.356a.267.267,0,0,0-.294.2.259.259,0,0,0,.2.3Zm-3.039,4.456a.267.267,0,0,0,.214.294l2.05.356-.4.125c.731,2.406,3.663,4.349,7.655,5.044a18.323,18.323,0,0,0,3.2.276,16.04,16.04,0,0,0,7.815-1.871l-.223-.33,1.854.321h.045a.258.258,0,0,0,.045-.508l-11.745-2.041a.267.267,0,0,0-.294.214.258.258,0,0,0,.2.294l9.8,1.675a16.647,16.647,0,0,1-10.6,1.5c-3.779-.659-6.541-2.442-7.245-4.652l5.73,1.016h0a.255.255,0,0,0,.036-.508l-7.878-1.39a.267.267,0,0,0-.258.214Zm-1.675,2.112c1.39,2.87,5.142,5.1,10.026,5.953a25.131,25.131,0,0,0,4.349.374c6.63,0,12.423-2.477,14.41-6.176a5.347,5.347,0,0,0,.134-5.053c-1.39-2.87-5.142-5.1-10.026-5.962a25.133,25.133,0,0,0-4.349-.374c-6.63,0-12.423,2.486-14.41,6.176a5.347,5.347,0,0,0-.134,5.062Zm.579-4.812c1.871-3.484,7.619-5.917,13.965-5.917a24.97,24.97,0,0,1,4.265.366c4.718.837,8.327,2.958,9.655,5.685a4.875,4.875,0,0,1-.125,4.589c-1.871,3.476-7.619,5.908-13.965,5.908a24.954,24.954,0,0,1-4.265-.366c-4.718-.828-8.336-2.958-9.655-5.676a4.875,4.875,0,0,1,.143-4.634Zm.838,0a4.812,4.812,0,0,0-.125,4.545c1.265,2.6,4.67,4.616,9.117,5.4a22.547,22.547,0,0,0,3.966.348c6.051,0,11.327-2.255,13.127-5.614a4.812,4.812,0,0,0,.125-4.536c-1.265-2.6-4.67-4.625-9.117-5.409a23.447,23.447,0,0,0-3.975-.339c-6.042-.027-11.318,2.228-13.118,5.579Zm.223.125c1.738-3.226,7.04-5.481,12.9-5.481a23,23,0,0,1,3.927.338c4.37.776,7.7,2.736,8.915,5.267a4.554,4.554,0,0,1-.116,4.3c-1.738,3.226-7.04,5.481-12.9,5.481a22.982,22.982,0,0,1-3.921-.339c-4.367-.766-7.709-2.736-8.912-5.267a4.554,4.554,0,0,1,.116-4.331Zm9.339,1.319,1.123,1.185-1.069,1.212a.214.214,0,0,0,.187.321l2.5-.276,1.782,1.025a.178.178,0,0,0,.1,0h.071a.178.178,0,0,0,.107-.134l.321-1.381,2.21-.66a.187.187,0,0,0,.143-.187.2.2,0,0,0-.143-.178l-2.246-.615-.374-1.372a.187.187,0,0,0-.232-.134.178.178,0,0,0-.134.232l.4,1.488a.205.205,0,0,0,.134.134l1.7.463-1.675.5a.205.205,0,0,0-.134.134l-.285,1.248-1.613-.936a.179.179,0,0,0-.116,0l-2.076.223.891-.971a.2.2,0,0,0,0-.258l-.891-.954,2.076.187a.192.192,0,0,0,.036-.383l-2.575-.223a.187.187,0,0,0-.187.107.2.2,0,0,0-.027.178Zm-5.427-1.185-1.658.5a.187.187,0,0,0,0,.365l1.693.463.276,1.025a.2.2,0,0,0,.116.125h.071a.2.2,0,0,0,.1,0l1.372-.838a.2.2,0,1,0-.2-.33l-1.15.7-.241-.891a.187.187,0,0,0-.134-.134l-1.15-.312,1.132-.339a.169.169,0,0,0,.125-.143l.2-.891,1.185.677a.169.169,0,0,0,.116,0l1.462-.16-.579.66a.2.2,0,0,0,0,.258l.945,1.007a.2.2,0,0,0,.276-.267l-.829-.891.793-.891a.187.187,0,0,0,0-.214.2.2,0,0,0-.2-.1l-1.889.2-1.346-.775a.2.2,0,0,0-.285.134Zm16.994,4.322,1.969.178a.2.2,0,0,0,.187-.107.187.187,0,0,0,0-.214l-.829-.891.793-.891a.205.205,0,0,0,0-.214.214.214,0,0,0-.2-.1l-1.889.205-1.355-.775a.223.223,0,0,0-.169,0,.2.2,0,0,0-.107.134l-.241,1.034-1.658.49a.2.2,0,0,0-.143.187.178.178,0,0,0,.143.178l1.684.463.285,1.025a.187.187,0,0,0,.187.143h.045a.187.187,0,0,0,.134-.232l-.312-1.132a.187.187,0,0,0-.134-.134l-1.141-.312,1.123-.339a.178.178,0,0,0,.134-.143l.2-.891,1.185.677a.249.249,0,0,0,.116,0l1.461-.16-.579.651a.187.187,0,0,0,0,.258l.6.642-1.462-.134a.2.2,0,0,0-.2.178.187.187,0,0,0,.169.2Z" transform="translate(-276.427 -134.421)" fill="#0fbab8" opacity="0.8"/>
            <path id="Trazado_64" data-name="Trazado 64" d="M116.49,127.911l26.9,15.872,12.307,1.06,25.639,14.009,45.146-16.077,61.4-26.45L192.239,60.78Z" transform="translate(-12.678 -6.615)" fill="#92b4d1" opacity="0.2"/>
            <path id="Trazado_65" data-name="Trazado 65" d="M153.76,18.1l76.782,44.674,44.139,6.3L197.855,25.292Z" transform="translate(-16.734 -1.97)" fill="#084c94"/>
            <path id="Trazado_66" data-name="Trazado 66" d="M239.89,68.23v75.357l7.931-4.483.018-1.666,28.214-16.7,1.711.642,6.292-3.725V74.531Z" transform="translate(-26.109 -7.426)" fill="#a8cff0"/>
            <path id="Trazado_67" data-name="Trazado 67" d="M230.542,62.774V138.13L153.76,93.43V18.1Z" transform="translate(-16.734 -1.97)" fill="#d1ebff"/>
            <path id="Trazado_68" data-name="Trazado 68" d="M246.76,101.914,280.366,81.72v40.031l-1.854,1.1-1.72-.642-28.205,16.7-.018,1.666-1.809,1.069Z" transform="translate(-26.856 -8.894)" fill="#f0f8ff"/>
            <path id="Trazado_69" data-name="Trazado 69" d="M277.015,122.727V86.51L248.81,103.46v35.967Z" transform="translate(-27.079 -9.416)" fill="#0ba19f"/>
            <path id="Trazado_70" data-name="Trazado 70" d="M514,214.681v35.976l28.214-16.7V197.74Zm27.323,18.768-26.432,15.64V215.225l26.423-15.88Z" transform="translate(-292.243 -120.637)" fill="#e6e7e8"/>
            <g id="Grupo_9" data-name="Grupo 9" transform="translate(221.731 78.921)">
              <path id="Trazado_71" data-name="Trazado 71" d="M277.015,89.487V88.56L248.81,105.51v.677Z" transform="translate(-248.81 -88.56)" fill="#e6e7e8"/>
              <path id="Trazado_72" data-name="Trazado 72" d="M277.015,92.7V91.76L248.81,108.71v.686Z" transform="translate(-248.81 -88.908)" fill="#e6e7e8"/>
              <path id="Trazado_73" data-name="Trazado 73" d="M277.015,95.9V94.97L248.81,111.911v.686Z" transform="translate(-248.81 -89.258)" fill="#e6e7e8"/>
              <path id="Trazado_74" data-name="Trazado 74" d="M277.015,99.106V98.17L248.81,115.12v.686Z" transform="translate(-248.81 -89.606)" fill="#e6e7e8"/>
              <path id="Trazado_75" data-name="Trazado 75" d="M277.015,102.306v-.936L248.81,118.32v.686Z" transform="translate(-248.81 -89.954)" fill="#e6e7e8"/>
              <path id="Trazado_76" data-name="Trazado 76" d="M277.015,105.516v-.936L248.81,121.53v.677Z" transform="translate(-248.81 -90.304)" fill="#e6e7e8"/>
              <path id="Trazado_77" data-name="Trazado 77" d="M277.015,108.716v-.936L248.81,124.73v.686Z" transform="translate(-248.81 -90.652)" fill="#e6e7e8"/>
              <path id="Trazado_78" data-name="Trazado 78" d="M277.015,111.917v-.927L248.81,127.94v.677Z" transform="translate(-248.81 -91.001)" fill="#e6e7e8"/>
              <path id="Trazado_79" data-name="Trazado 79" d="M277.015,115.126v-.936L248.81,131.14v.686Z" transform="translate(-248.81 -91.35)" fill="#e6e7e8"/>
              <path id="Trazado_80" data-name="Trazado 80" d="M277.015,118.327V117.4L248.81,134.341v.686Z" transform="translate(-248.81 -91.699)" fill="#e6e7e8"/>
              <path id="Trazado_81" data-name="Trazado 81" d="M277.015,121.536V120.6L248.81,137.55v.686Z" transform="translate(-248.81 -92.047)" fill="#e6e7e8"/>
              <path id="Trazado_82" data-name="Trazado 82" d="M277.015,124.737v-.927L248.81,140.751v.686Z" transform="translate(-248.81 -92.397)" fill="#e6e7e8"/>
            </g>
            <path id="Trazado_83" data-name="Trazado 83" d="M173.136,107.641v47.98L94.58,110.786V62.53Z" transform="translate(-10.293 -6.806)" fill="#d1ebff"/>
            <path id="Trazado_84" data-name="Trazado 84" d="M173.136,101.289l36.85-56.446L131.421,0,94.58,56.179Z" transform="translate(-10.293)" fill="#2672ab"/>
            <path id="Trazado_85" data-name="Trazado 85" d="M173.136,106.766l36.85-56.446-37.063,55.065L94.58,61.656Z" transform="translate(-10.293 -5.477)" fill="#3f92d1"/>
            <path id="Trazado_86" data-name="Trazado 86" d="M100.75,104.131V72.78l16.772,9.829v31.28Z" transform="translate(-10.965 -7.921)" fill="#fff"/>
            <path id="Trazado_87" data-name="Trazado 87" d="M115.926,84.04v27.073l-13.136-7.646V76.34Z" transform="translate(-11.187 -8.309)" fill="#a8cff0"/>
            <path id="Trazado_88" data-name="Trazado 88" d="M182.73,154.233V106.707L219.419,49.78V133.7Z" transform="translate(-19.887 -5.418)" fill="#a8cff0"/>
            <path id="Trazado_89" data-name="Trazado 89" d="M180.624,46.46,146.68,66.315v75.909l5.525-3.235V90.956Z" transform="translate(-15.964 -5.057)" fill="#a8cff0"/>
            <path id="Trazado_90" data-name="Trazado 90" d="M104.66,102.758l11.469,6.666V84.159L104.66,77.44Z" transform="translate(-11.39 -8.429)" fill="#3f92d1"/>
            <path id="Trazado_91" data-name="Trazado 91" d="M104.66,102.758l11.469-18.6L104.66,77.44Z" transform="translate(-11.39 -8.429)" fill="#72b5e8" opacity="0.3"/>
            <path id="Trazado_92" data-name="Trazado 92" d="M369.82,188.67v25.309l11.469,6.666V195.389Zm10.551,30.4-9.642-5.614v-23.17l9.642,5.65Z" transform="translate(-276.55 -119.65)" fill="#2672ab" opacity="0.5"/>
            <path id="Trazado_93" data-name="Trazado 93" d="M110.964,80.32l-.624-.33v29.337l.624.33Z" transform="translate(-12.008 -8.706)" fill="#fff"/>
            <path id="Trazado_94" data-name="Trazado 94" d="M102.45,85.96v.784l13.884,7.94v-.793Z" transform="translate(-11.15 -9.356)" fill="#fff"/>
            <path id="Trazado_95" data-name="Trazado 95" d="M102.45,95.38v.793l13.884,7.931v-.784Z" transform="translate(-11.15 -10.381)" fill="#fff"/>
            <path id="Trazado_96" data-name="Trazado 96" d="M143.455,66.849v75.909L117.05,127.395V51.37Z" transform="translate(-12.739 -5.591)" fill="#d1ebff"/>
            <path id="Trazado_97" data-name="Trazado 97" d="M158.09,136.741V105.39l16.772,9.83V146.5Z" transform="translate(-17.206 -11.471)" fill="#fff"/>
            <path id="Trazado_98" data-name="Trazado 98" d="M173.266,116.65v27.073l-13.136-7.646V108.95Z" transform="translate(-17.428 -11.858)" fill="#a8cff0"/>
            <path id="Trazado_99" data-name="Trazado 99" d="M122.46,83.477V60.77l16.772,9.838V93.235Z" transform="translate(-13.328 -6.614)" fill="#fff"/>
            <path id="Trazado_100" data-name="Trazado 100" d="M137.636,72.04V90.451L124.5,82.814V64.34Z" transform="translate(-13.55 -7.003)" fill="#a8cff0"/>
            <path id="Trazado_101" data-name="Trazado 101" d="M162,135.368l11.469,6.666V116.769L162,110.05Z" transform="translate(-17.631 -11.978)" fill="#3f92d1"/>
            <path id="Trazado_102" data-name="Trazado 102" d="M162,135.368l11.469-18.6L162,110.05Z" transform="translate(-17.631 -11.978)" fill="#72b5e8" opacity="0.3"/>
            <path id="Trazado_103" data-name="Trazado 103" d="M126.37,82.1l11.469,6.675V72.159L126.37,65.44Z" transform="translate(-13.753 -7.122)" fill="#3f92d1"/>
            <path id="Trazado_104" data-name="Trazado 104" d="M427.16,221.28v25.309l11.443,6.666V228Zm10.551,30.4-9.651-5.614v-23.17l9.651,5.623Z" transform="translate(-282.791 -123.199)" fill="#2672ab" opacity="0.5"/>
            <path id="Trazado_105" data-name="Trazado 105" d="M126.37,82.1l11.469-9.936L126.37,65.44Z" transform="translate(-13.753 -7.122)" fill="#72b5e8" opacity="0.3"/>
            <path id="Trazado_106" data-name="Trazado 106" d="M391.53,176.66v16.665L403,199.991V183.379Zm10.56,21.753-9.651-5.614V178.246l9.651,5.659Z" transform="translate(-278.913 -118.342)" fill="#2672ab" opacity="0.5"/>
            <path id="Trazado_107" data-name="Trazado 107" d="M194.12,112.247l19.49-11.157v42.045l-19.49,11.077Z" transform="translate(-21.127 -11.003)" fill="#f0f8ff"/>
            <path id="Trazado_108" data-name="Trazado 108" d="M196.16,113.679v37.758L212,142.472V104.66Z" transform="translate(-21.349 -11.391)" fill="#d1ebff"/>
            <path id="Trazado_109" data-name="Trazado 109" d="M210.49,141.752V105.66l-14.33,8.127v36.039Z" transform="translate(-21.349 -11.5)" fill="#0ba19f"/>
            <path id="Trazado_110" data-name="Trazado 110" d="M461.32,225.007v36.039l14.33-8.074V216.88Zm13.421,27.43L462.265,259.5V225.533l12.476-7.129Z" transform="translate(-286.509 -122.72)" fill="#e6e7e8"/>
            <path id="Trazado_111" data-name="Trazado 111" d="M143.455,64.44,177.4,44.585,150.994,29.23,117.05,48.96Z" transform="translate(-12.739 -3.181)" fill="#2672ab"/>
            <path id="Trazado_112" data-name="Trazado 112" d="M143.455,66.315,177.4,46.46,143.58,65.165l-26.53-14.33Z" transform="translate(-12.739 -5.057)" fill="#3f92d1"/>
            <path id="Trazado_113" data-name="Trazado 113" d="M168.094,112.69l-.624-.33V141.7l.624.33Z" transform="translate(-18.226 -12.229)" fill="#fff"/>
            <path id="Trazado_114" data-name="Trazado 114" d="M159.57,118.33v.793l13.884,7.94v-.793Z" transform="translate(-17.367 -12.879)" fill="#fff"/>
            <path id="Trazado_115" data-name="Trazado 115" d="M159.57,127.76v.793l13.884,7.931v-.793Z" transform="translate(-17.367 -13.905)" fill="#fff"/>
            <path id="Trazado_116" data-name="Trazado 116" d="M122.42,123.4V92.05l16.781,9.838v31.28Z" transform="translate(-13.323 -10.019)" fill="#fff"/>
            <path id="Trazado_117" data-name="Trazado 117" d="M137.6,103.32v27.065l-13.136-7.637V95.62Z" transform="translate(-13.545 -10.407)" fill="#a8cff0"/>
            <path id="Trazado_118" data-name="Trazado 118" d="M126.34,122.029,137.8,128.7V103.439L126.34,96.72Z" transform="translate(-13.75 -10.527)" fill="#3f92d1"/>
            <path id="Trazado_119" data-name="Trazado 119" d="M126.34,122.029l11.46-18.59L126.34,96.72Z" transform="translate(-13.75 -10.527)" fill="#72b5e8" opacity="0.3"/>
            <path id="Trazado_120" data-name="Trazado 120" d="M391.5,207.94v25.318l11.46,6.666V214.659Zm10.551,30.4-9.642-5.605v-23.17l9.642,5.659Z" transform="translate(-278.91 -121.747)" fill="#2672ab" opacity="0.5"/>
            <path id="Trazado_121" data-name="Trazado 121" d="M132.424,99.36l-.624-.33v29.337l.624.33Z" transform="translate(-14.344 -10.778)" fill="#fff"/>
            <path id="Trazado_122" data-name="Trazado 122" d="M123.91,105v.793l13.875,7.931v-.784Z" transform="translate(-13.485 -11.428)" fill="#fff"/>
            <path id="Trazado_123" data-name="Trazado 123" d="M123.91,114.43v.784l13.875,7.94v-.793Z" transform="translate(-13.485 -12.454)" fill="#fff"/>
            <path id="Trazado_124" data-name="Trazado 124" d="M189.25,165.816v2.21l36.555-20.737V145.07Z" transform="translate(-20.597 -15.789)" fill="#a8cff0"/>
            <path id="Trazado_125" data-name="Trazado 125" d="M188.548,167.933v2.21l-5.828-3.422v-2.2Z" transform="translate(-19.886 -17.906)" fill="#d1ebff"/>
            <path id="Trazado_126" data-name="Trazado 126" d="M182.72,162l5.828,3.413,36.547-20.746-5.686-3.306Z" transform="translate(-19.886 -15.386)" fill="#f0f8ff"/>
            <path id="Trazado_127" data-name="Trazado 127" d="M464.777,242.349a2.049,2.049,0,0,1-.891,1.613c-.517.3-.936.062-.936-.526a2.077,2.077,0,0,1,.936-1.622C464.385,241.521,464.777,241.761,464.777,242.349Z" transform="translate(-286.686 -125.42)" fill="#a7a9ac"/>
            <path id="Trazado_128" data-name="Trazado 128" d="M532.777,241.349a2.049,2.049,0,0,1-.891,1.613c-.517.3-.936.062-.936-.526a2.076,2.076,0,0,1,.936-1.622C532.385,240.521,532.777,240.761,532.777,241.349Z" transform="translate(-294.088 -125.311)" fill="#a7a9ac"/>
            <path id="Trazado_129" data-name="Trazado 129" d="M152.88,90.956,181.3,46.46,160.874,95.536Z" transform="translate(-16.638 -5.057)" fill="#084c94" opacity="0.3"/>
            <path id="Trazado_130" data-name="Trazado 130" d="M182.72,162l42.375-17.333-5.686-3.306Z" transform="translate(-19.886 -15.386)" fill="#92b4d1" opacity="0.2"/>
            <path id="Trazado_131" data-name="Trazado 131" d="M280.46,86.4v36.217l1.72.642V85.47Z" transform="translate(-30.524 -9.302)" fill="#d1ebff"/>
            <path id="Trazado_132" data-name="Trazado 132" d="M132.594,66.94l-.624-.33V88.265l.624.33Z" transform="translate(-14.363 -7.25)" fill="#fff"/>
            <path id="Trazado_133" data-name="Trazado 133" d="M124.07,73.66v.793l13.884,7.931v-.793Z" transform="translate(-13.503 -8.017)" fill="#fff"/>
            <path id="Trazado_134" data-name="Trazado 134" d="M446.823,312.5l-7.031-13.367s-16.041,14.071-15.355,15.613S446.823,312.5,446.823,312.5Z" transform="translate(-282.492 -131.672)" fill="#ffe9b8"/>
            <path id="Trazado_135" data-name="Trazado 135" d="M459.908,331.735,438.2,320.9a6.512,6.512,0,0,0-.624-.258,84.522,84.522,0,0,0-11.95-4.108h0c-.82-.214-1.212.045-.936.989a4.385,4.385,0,0,0,1.925,2.433h0s7.878,5.632,12.913,8.475a6.421,6.421,0,0,0,.891.535h.045l21.923,11.148Z" transform="translate(-282.513 -133.558)" opacity="0.2" fill="url(#radial-gradient)"/>
            <path id="Trazado_136" data-name="Trazado 136" d="M447.405,327.144l-16.273-8.154-.276-.116a38.576,38.576,0,0,0-5.347-1.845h0c-.365-.1-.107,1.105.446,1.533h0s3.565,2.531,5.793,3.805a3.1,3.1,0,0,0,.392.241h0l16.38,8.288Z" transform="translate(-282.593 -133.62)" opacity="0.3" fill="url(#radial-gradient-2)"/>
            <path id="Trazado_137" data-name="Trazado 137" d="M506.052,273.7c.526,1.23-6.71,5.534-16.175,9.616s-17.556,6.39-18.091,5.16,6.71-5.534,16.175-9.616S505.517,272.47,506.052,273.7Z" transform="translate(-287.645 -128.868)" fill="url(#radial-gradient-3)"/>
            <path id="Trazado_138" data-name="Trazado 138" d="M494.757,272.59l-52.115,22.93a5.659,5.659,0,0,0-2.264,1.782l-1.5,2a1.176,1.176,0,0,0,.838,1.88l3.279.285,53.817-23.856Z" transform="translate(-284.041 -128.783)" fill="#fc0"/>
            <path id="Trazado_139" data-name="Trazado 139" d="M497.162,278.24l-53.817,23.847-1.363,2.433a1.159,1.159,0,0,0,.758,1.711l3.19.7,52.579-23.17Z" transform="translate(-284.387 -129.398)" fill="#ffde17"/>
            <path id="Trazado_140" data-name="Trazado 140" d="M498.84,284.44,501.308,288l-51.589,22.778a2.673,2.673,0,0,1-2.468-.134l-1.167-.677a.945.945,0,0,1-.446-1.453l.659-.891Z" transform="translate(-284.782 -130.073)" fill="#fc0"/>
            <path id="Trazado_141" data-name="Trazado 141" d="M517.983,281.57l-6.363-14.33L501.461,271.7h-.053c-2.308,1.025-2.745,5.062-.989,9.01s5.044,6.336,7.352,5.347h.053Z" transform="translate(-290.647 -128.201)" fill="#a8cff0"/>
            <ellipse id="Elipse_1" data-name="Elipse 1" cx="4.563" cy="7.833" rx="4.563" ry="7.833" transform="translate(216.778 140.893) rotate(-23.94)" fill="#72b5e8"/>
            <path id="Trazado_142" data-name="Trazado 142" d="M512.137,276.222c-1.782-3.957-1.31-8.02,1-9.019l.151-.053a2.744,2.744,0,0,0-.749.2c-2.3,1.016-2.745,5.053-.989,9.01s4.9,6.238,7.192,5.347C516.522,282.032,513.714,279.76,512.137,276.222Z" transform="translate(-291.859 -128.191)" fill="#d1ebff"/>
            <path id="Trazado_143" data-name="Trazado 143" d="M525.665,277.977l-5.944-13.367-6.122,2.673h-.053c-2.157.954-2.567,4.723-.891,8.422s4.714,5.908,6.862,4.955h.053Z" transform="translate(-291.984 -127.915)" fill="#eb4680"/>
            <path id="Trazado_144" data-name="Trazado 144" d="M526.389,277.969c-2.156.954-5.222-1.265-6.862-4.964s-1.23-7.459.891-8.413,5.231,1.265,6.871,4.955S528.537,277.016,526.389,277.969Z" transform="translate(-292.735 -127.889)" fill="#f76195"/>
            <path id="Trazado_145" data-name="Trazado 145" d="M519.8,272.942c-1.488-3.369-1.274-6.791.4-8.092h-.134c-2.157.954-2.567,4.723-.891,8.421s4.714,5.908,6.862,4.955a2.441,2.441,0,0,0,.526-.321C524.36,278.752,521.384,276.569,519.8,272.942Z" transform="translate(-292.693 -127.941)" fill="#fff" opacity="0.5"/>
            <path id="Trazado_146" data-name="Trazado 146" d="M428.029,311.45a11.807,11.807,0,0,0,1.889,4.866c-3,.258-5.267.276-5.481-.214S425.828,313.722,428.029,311.45Z" transform="translate(-282.493 -133.013)" fill="#001a46"/>
            <path id="Trazado_147" data-name="Trazado 147" d="M347.946,195.955a.446.446,0,0,1-.446-.446v-1.782a.455.455,0,0,1,.446-.446.446.446,0,0,1,.446.446v1.782A.446.446,0,0,1,347.946,195.955Zm0-4.456a.446.446,0,0,1-.446-.446v-1.782a.455.455,0,0,1,.446-.446.446.446,0,0,1,.446.446v1.782A.446.446,0,0,1,347.946,191.5Zm0-4.456a.446.446,0,0,1-.446-.446v-1.782a.455.455,0,0,1,.446-.446.446.446,0,0,1,.446.446V186.6A.446.446,0,0,1,347.946,187.043Zm0-4.456a.446.446,0,0,1-.446-.446V180.36a.455.455,0,0,1,.446-.446.446.446,0,0,1,.446.446v1.782A.446.446,0,0,1,347.946,182.588Zm0-4.456a.446.446,0,0,1-.446-.446V175.9a.455.455,0,0,1,.446-.446.446.446,0,0,1,.446.446v1.782A.446.446,0,0,1,347.946,178.132Zm0-4.456a.446.446,0,0,1-.446-.446v-1.782a.455.455,0,0,1,.446-.446.446.446,0,0,1,.446.446v1.782A.446.446,0,0,1,347.946,173.676Zm0-4.456h0a.437.437,0,0,1-.437-.454,14.009,14.009,0,0,1,.143-1.827.446.446,0,0,1,.5-.383.455.455,0,0,1,.383.508,13.964,13.964,0,0,0-.134,1.72.454.454,0,0,1-.454.437Zm.731-4.376h-.134a.437.437,0,0,1-.285-.561,14.189,14.189,0,0,1,.668-1.711.446.446,0,1,1,.8.374,14.566,14.566,0,0,0-.624,1.6.446.446,0,0,1-.437.294Zm1.969-3.984a.4.4,0,0,1-.241-.071.446.446,0,0,1-.134-.615l.98-1.488a.446.446,0,0,1,.615-.134.454.454,0,0,1,.134.624l-.98,1.488a.445.445,0,0,1-.4.2Zm2.451-3.725a.428.428,0,0,1-.249-.071.446.446,0,0,1-.125-.615l.971-1.488a.447.447,0,1,1,.749.49l-.98,1.488a.437.437,0,0,1-.374.2Zm2.442-3.725a.428.428,0,0,1-.25-.071.446.446,0,0,1-.125-.615l.98-1.488a.437.437,0,0,1,.615-.134.455.455,0,0,1,.125.624l-.971,1.488a.463.463,0,0,1-.383.2Zm2.442-3.725a.4.4,0,0,1-.241-.071.446.446,0,0,1-.134-.615l.98-1.488a.446.446,0,1,1,.74.481l-.971,1.5a.463.463,0,0,1-.383.2Zm2.442-3.725a.4.4,0,0,1-.241-.071.446.446,0,0,1-.134-.615l.98-1.5a.447.447,0,1,1,.749.49l-.98,1.5a.463.463,0,0,1-.374.2Zm2.442-3.725a.472.472,0,0,1-.241-.071.446.446,0,0,1-.125-.615l.971-1.5a.454.454,0,0,1,.624-.125.446.446,0,0,1,.125.615l-.98,1.5a.446.446,0,0,1-.383.2Zm2.451-3.725a.508.508,0,0,1-.25-.071.446.446,0,0,1-.125-.615l.98-1.5a.446.446,0,1,1,.74.49l-.971,1.488a.455.455,0,0,1-.383.169Zm2.442-3.725a.446.446,0,0,1-.374-.7l.98-1.488a.446.446,0,0,1,.615-.125.437.437,0,0,1,.125.615l-.971,1.488a.454.454,0,0,1-.383.2Zm2.442-3.725a.472.472,0,0,1-.241-.071.455.455,0,0,1-.134-.624l.98-1.488a.447.447,0,1,1,.749.49l-.98,1.488a.455.455,0,0,1-.348.2Zm2.442-3.725a.472.472,0,0,1-.241-.071.446.446,0,0,1-.125-.624l.971-1.488a.454.454,0,0,1,.624-.125.446.446,0,0,1,.125.615l-.98,1.488a.428.428,0,0,1-.383.2Zm2.451-3.725a.437.437,0,0,1-.25-.08.446.446,0,0,1-.125-.615l.98-1.488a.437.437,0,0,1,.615-.125.446.446,0,0,1,.125.615l-.98,1.488a.428.428,0,0,1-.374.2Zm2.442-3.725a.392.392,0,0,1-.241-.08.437.437,0,0,1-.134-.615l.749-1.132a.446.446,0,1,1,.74.481l-.74,1.141a.455.455,0,0,1-.383.2Z" transform="translate(-274.121 -111.936)" fill="#eb4680"/>
            <path id="Trazado_148" data-name="Trazado 148" d="M351.756,150.092a.4.4,0,0,1-.241-.071.446.446,0,0,1-.134-.615L369.107,122.4a.446.446,0,0,1,.615-.134.454.454,0,0,1,.125.624L352.13,149.9a.463.463,0,0,1-.374.2Z" transform="translate(-274.536 -112.414)" fill="#a8cff0"/>
            <path id="Trazado_149" data-name="Trazado 149" d="M409.6,369.075a.446.446,0,0,1-.383-.223.455.455,0,0,1,.16-.615l30.3-17.645a.437.437,0,0,1,.606.16.446.446,0,0,1-.16.606l-30.3,17.654A.489.489,0,0,1,409.6,369.075Z" transform="translate(-280.831 -137.266)" fill="#a8cff0"/>
          </g>
        </g>
      </g>
    </g>
  </g>
</svg>
